<svg width="1057" height="2246" viewBox="0 0 1057 2246" fill="none" xmlns="http://www.w3.org/2000/svg">
<path d="M603 74.4C603 115.6 569.6 148.9 528.5 148.9C487.3 148.9 454 115.6 454 74.4C454 33.3 487.3 0 528.5 0C569.6 0 603 33.3 603 74.4Z" fill="#1D2435"/>
<path d="M507 20.2C523.1 20.2 536.2 33.1999 536.2 49.3999C536.2 65.4999 523.1 78.5999 507 78.5999C490.9 78.5999 477.8 65.4999 477.8 49.3999C477.8 33.1999 490.9 20.2 507 20.2Z" fill="#FEFEFE"/>
<path d="M528.1 1990.2C309.5 1988.1 194.3 1888.9 189.5 1884.6C186.5 1882 185.5 1877.7 187.2 1874C520.6 1147.4 300.3 884.2 298 881.7C295.6 879 295.1 875.2 296.5 871.9C298 868.7 301.2 866.6 304.8 866.6H751.6C755.1 866.6 758.4 868.7 759.9 871.9C761.3 875.2 760.8 879 758.4 881.7C757.9 882.3 702 948 687.7 1102.2C674.5 1245 695.2 1494.8 869.2 1874C870.9 1877.7 869.9 1882 866.9 1884.6C862.1 1888.9 746.9 1988.1 528.3 1990.2H528.2H528.1Z" fill="#FEFEFE"/>
<path fill-rule="evenodd" clip-rule="evenodd" d="M769.8 875.7C769.8 880.4 768 884.6 765.1 887.9C758 896.3 550.4 1157.4 877.4 1870.2C880.8 1877.5 879 1886.2 872.9 1891.5C868 1895.8 750.3 1997.1 528.4 1999.3H528C306.1 1997.1 188.4 1895.8 183.5 1891.5C177.4 1886.2 175.6 1877.5 179 1870.2C351.4 1494.3 372.5 1246.7 359.8 1105.2C346.2 953.1 291.7 888.2 291.2 887.7C286.4 882.3 285.3 874.7 288.2 868.2C291.2 861.7 297.7 857.5 304.8 857.5H751.6C761.7 857.5 769.8 865.6 769.8 875.7ZM304.8 875.7C304.8 875.7 535.2 1137.4 195.5 1877.8C195.5 1877.8 310.4 1979 528.2 1981.1C746 1979 860.9 1877.8 860.9 1877.8C521.2 1137.4 751.6 875.7 751.6 875.7H304.8ZM751.5 875.7H751.6H751.5ZM751.5 893.8H751.6H751.5Z" fill="#1D2435"/>
<path d="M399.5 1967.4C878.3 875.7 397.1 860.9 368.9 1037.8C346.7 932.2 304.8 875.7 304.8 875.7H751.6C751.6 875.7 521.2 1137.4 860.9 1877.8C860.9 1877.8 745.9 1979 528.2 1981.1C480.3 1980.6 437.4 1975.4 399.5 1967.4Z" fill="#1D2435"/>
<path d="M528.2 920.8C374.5 920.8 254 875.3 254 817.2C254 790.7 277.5 766.7 322 747.9C323.2 747.4 324.4 747.2 325.6 747.2C328.8 747.2 332 748.9 333.6 752C335.8 756.2 334.5 761.3 330.5 763.9C325.1 767.5 321.8 771.1 321.8 773.7C321.8 788.3 392.7 815.6 528.2 815.6C663.8 815.6 734.7 788.3 734.7 773.7C734.7 771.1 731.4 767.5 725.9 763.9C722 761.3 720.7 756.2 722.9 752C724.5 748.9 727.6 747.2 730.9 747.2C732.1 747.2 733.267 747.433 734.4 747.9C778.9 766.7 802.5 790.7 802.5 817.2C802.5 875.3 682 920.8 528.2 920.8Z" fill="#FEFEFE"/>
<path fill-rule="evenodd" clip-rule="evenodd" d="M738 739.5C798.8 765.2 811.5 795.9 811.5 817.2C811.5 890.4 665.6 929.9 528.2 929.9C390.9 929.9 244.9 890.4 244.9 817.2C244.9 795.9 257.7 765.2 318.5 739.5C320.8 738.5 323.2 738.1 325.6 738.1C332.1 738.1 338.4 741.6 341.6 747.7C346.1 756 343.4 766.4 335.5 771.5C334.1 772.4 333.1 773.2 332.4 773.8C346.3 786.6 416.9 806.5 528.2 806.5C639.5 806.5 710.2 786.6 724.1 773.8C723.4 773.2 722.3 772.4 721 771.5C713.1 766.4 710.4 756 714.8 747.7C718.1 741.6 724.4 738.1 730.9 738.1C733.3 738.1 735.7 738.5 738 739.5ZM743.8 773.7C743.8 801.9 647.3 824.7 528.2 824.7C409.2 824.7 312.7 801.9 312.7 773.7C312.7 767.6 317.2 761.7 325.6 756.3C286.6 772.7 263.1 794 263.1 817.2C263.1 869.4 381.8 911.7 528.2 911.7C674.7 911.7 793.4 869.4 793.4 817.2C793.4 794 769.8 772.7 730.9 756.3C739.2 761.7 743.8 767.6 743.8 773.7Z" fill="#1D2435"/>
<path d="M793.4 817.2C793.4 869.4 674.7 911.7 528.2 911.7C416 911.7 320.2 886.9 281.5 851.8C560.4 954.6 806.3 834 722.9 795.6C736.3 788.9 743.8 781.5 743.8 773.7C743.8 767.6 739.2 761.7 730.9 756.3C769.8 772.7 793.4 794 793.4 817.2Z" fill="#1D2435"/>
<path d="M528.2 843.1C396.8 843.1 297.7 805.2 297.7 755C297.7 732.2 317.6 711.7 355.4 695.8C356.534 695.267 357.7 695 358.9 695C362.2 695 365.3 696.8 367 699.9C369.2 704 367.8 709.2 363.9 711.8C358.7 715.2 357.3 717.8 357.3 718.7C357.3 728.7 415.4 752.2 528.2 752.2C641 752.2 699.2 728.7 699.2 718.7C699.2 717.8 697.8 715.2 692.6 711.8C688.6 709.2 687.3 704 689.5 699.9C691.1 696.8 694.3 695 697.5 695C698.7 695 699.9 695.267 701.1 695.8C738.8 711.7 758.8 732.2 758.8 755C758.8 805.2 659.7 843.1 528.2 843.1Z" fill="#FEFEFE"/>
<path fill-rule="evenodd" clip-rule="evenodd" d="M704.6 687.4C756.9 709.5 767.9 736.4 767.9 755C767.9 818.8 647.3 852.2 528.2 852.2C409.1 852.2 288.6 818.8 288.6 755C288.6 736.4 299.6 709.5 351.9 687.4C354.2 686.4 356.6 685.9 358.9 685.9C365.5 685.9 371.7 689.5 375 695.6C379.3 703.6 376.9 713.5 369.7 718.8C385.7 728.6 440.1 743.1 528.2 743.1C616.4 743.1 670.8 728.6 686.7 718.8C679.5 713.5 677.2 703.6 681.5 695.6C684.7 689.5 691 685.9 697.5 685.9C699.9 685.9 702.3 686.4 704.6 687.4ZM708.3 718.7C708.3 742.2 627.7 761.3 528.2 761.3C428.8 761.3 348.2 742.2 348.2 718.7C348.2 713.6 352 708.7 358.9 704.1C326.4 717.9 306.8 735.6 306.8 755C306.8 798.6 405.9 834 528.2 834C650.6 834 749.7 798.6 749.7 755C749.7 735.6 730.1 717.9 697.5 704.1C704.5 708.7 708.3 713.6 708.3 718.7Z" fill="#1D2435"/>
<path d="M749.7 755C749.7 798.6 650.6 834 528.2 834C434.5 834 354.4 813.2 322.1 783.9C555.1 869.8 760.6 769.1 690.9 737C702 731.4 708.3 725.2 708.3 718.7C708.3 713.6 704.5 708.7 697.5 704.1C730.1 717.9 749.7 735.6 749.7 755Z" fill="#1D2435"/>
<path d="M528.2 2236.1C237.1 2236.1 9.09961 2152.3 9.09961 2045.2C9.09961 1997.8 52.5996 1954.4 134.8 1919.6C135.9 1919.1 137.1 1918.9 138.3 1918.9C141.6 1918.9 144.7 1920.7 146.4 1923.7C148.6 1927.9 147.2 1933 143.3 1935.6C133.9 1941.7 122.6 1951.2 122.6 1961.5C122.6 2003.6 289.2 2050.5 528.2 2050.5C767.3 2050.5 933.8 2003.6 933.8 1961.5C933.8 1951.2 922.6 1941.7 913.2 1935.6C909.2 1933 907.9 1927.9 910.1 1923.7C911.7 1920.7 914.9 1918.9 918.1 1918.9C919.3 1918.9 920.5 1919.13 921.7 1919.6C1003.9 1954.4 1047.4 1997.8 1047.4 2045.2C1047.4 2152.3 819.4 2236.1 528.2 2236.1Z" fill="#FEFEFE"/>
<path fill-rule="evenodd" clip-rule="evenodd" d="M925.2 1911.2C1011.1 1947.5 1056.5 1993.8 1056.5 2045.2C1056.5 2102 999.1 2153.8 895 2190.9C796.8 2225.9 666.5 2245.2 528.2 2245.2C390 2245.2 259.7 2225.9 161.5 2190.9C57.3 2153.8 0 2102 0 2045.2C0 1993.8 45.4 1947.5 131.3 1911.2C133.6 1910.3 136 1909.8 138.3 1909.8C144.9 1909.8 151.1 1913.3 154.4 1919.4C158.8 1927.8 156.2 1938.1 148.3 1943.2C136.1 1951.2 131.7 1957.9 131.7 1961.5C131.7 1968.8 151 1992.3 239.2 2013.2C316.2 2031.4 418.8 2041.4 528.2 2041.4C637.6 2041.4 740.3 2031.4 817.3 2013.2C905.4 1992.3 924.7 1968.8 924.7 1961.5C924.7 1957.9 920.4 1951.2 908.2 1943.2C900.3 1938.1 897.7 1927.8 902.1 1919.4C905.3 1913.3 911.6 1909.8 918.1 1909.8C920.5 1909.8 922.9 1910.3 925.2 1911.2ZM942.9 1961.5C942.9 2015.7 757.3 2059.6 528.2 2059.6C299.2 2059.6 113.5 2015.7 113.5 1961.5C113.5 1949.7 122.3 1938.4 138.3 1928C63.4 1959.6 18.2 2000.5 18.2 2045.2C18.2 2145.6 246.5 2227 528.2 2227C809.9 2227 1038.3 2145.6 1038.3 2045.2C1038.3 2000.5 993.1 1959.6 918.1 1928C934.2 1938.4 942.9 1949.7 942.9 1961.5Z" fill="#1D2435"/>
<path d="M1038.3 2045.2C1038.3 2145.6 809.9 2227 528.2 2227C312.4 2227 128 2179.2 53.5 2111.7C590.2 2309.5 1063.3 2077.5 902.8 2003.6C928.5 1990.8 942.9 1976.6 942.9 1961.5C942.9 1949.7 934.2 1938.4 918.1 1928C993.1 1959.6 1038.3 2000.5 1038.3 2045.2Z" fill="#1D2435"/>
<path d="M528.2 2086.6C284.2 2086.6 93.0996 2015.9 93.0996 1925.6C93.0996 1887.4 126.3 1852.2 189.1 1823.6C190.3 1823.1 191.9 1822.7 193.2 1822.7C196.6 1822.7 199.8 1824.6 201.3 1827.6C204.1 1832.8 201.4 1836.8 198.5 1841C196.6 1843.8 190.9 1852.2 190.9 1855.7C190.9 1886.1 319.2 1928.6 528.2 1928.6C737.2 1928.6 865.6 1886.1 865.6 1855.7C865.6 1847.8 856.5 1840.2 849 1835.3C845 1832.7 843.7 1827.6 845.9 1823.4C847.5 1820.4 850.7 1818.6 854 1818.6C855.133 1818.6 856.3 1818.83 857.5 1819.3C926.8 1848.6 963.4 1885.3 963.4 1925.6C963.4 2015.9 772.3 2086.6 528.2 2086.6Z" fill="#FEFEFE"/>
<path fill-rule="evenodd" clip-rule="evenodd" d="M861 1810.9C934 1841.7 972.5 1881.4 972.5 1925.6C972.5 1974.4 923.9 2018.7 835.6 2050.1C753.2 2079.5 644.1 2095.7 528.2 2095.7C412.4 2095.7 303.2 2079.5 220.8 2050.1C132.6 2018.7 84 1974.4 84 1925.6C84 1896.3 101.6 1853.4 185.4 1815.4C187.9 1814.2 190.5 1813.6 193.2 1813.6C199.9 1813.6 206.2 1817.4 209.4 1823.4C214.7 1833.3 209 1841.7 206 1846.1C204.7 1848 201 1853.5 200.1 1856.2C201.2 1861.3 217.7 1879.4 287.5 1895.9C351.6 1911.1 437.1 1919.5 528.2 1919.5C619.4 1919.5 704.9 1911.1 769 1895.9C841.6 1878.7 856.5 1859.8 856.5 1855.7C856.5 1854.4 854.2 1849.6 844 1842.9C836.1 1837.8 833.5 1827.5 837.9 1819.1C841.1 1813 847.4 1809.5 854 1809.5C856.3 1809.5 858.7 1810 861 1810.9ZM874.7 1855.7C874.7 1900.9 719.6 1937.7 528.2 1937.7C336.9 1937.7 181.8 1900.9 181.8 1855.7C181.8 1846.3 194.8 1831.8 193.2 1831.8L192.9 1831.9C136.1 1857.7 102.2 1890.2 102.2 1925.6C102.2 2009.5 292.9 2077.5 528.2 2077.5C763.6 2077.5 954.3 2009.5 954.3 1925.6C954.3 1888.3 916.5 1854.1 854 1827.7C867.3 1836.4 874.7 1845.8 874.7 1855.7Z" fill="#1D2435"/>
<path d="M954.3 1925.6C954.3 2009.5 763.6 2077.5 528.2 2077.5C347.9 2077.5 193.9 2037.6 131.7 1981.1C580 2146.4 975.2 1952.6 841.1 1890.9C862.6 1880.2 874.7 1868.3 874.7 1855.7C874.7 1845.8 867.3 1836.4 854 1827.7C916.5 1854.1 954.3 1888.3 954.3 1925.6Z" fill="#1D2435"/>
<path d="M528.2 786.8C386 786.8 270.3 670.1 270.3 526.6C270.3 446.3 332.1 381.7 397.4 313.3C447.4 261 499.1 206.9 519.6 146C520.8 142.4 524.2 139.9 528.1 139.8H528.2C532 139.8 535.4 142.2 536.8 145.8C548.3 176.7 568.5 208.8 600.6 246.6C602.5 248.9 603.2 252.1 602.4 255L547.8 440.9C542.8 458 552.6 475.9 569.7 480.9C572.7 481.8 575.7 482.3 578.7 482.3C593 482.3 605.8 472.7 609.8 459.1L650.2 321.2C651.1 318.1 653.7 315.7 656.8 314.9C657.533 314.767 658.266 314.7 659 314.7C661.4 314.7 663.8 315.7 665.6 317.5C733.9 389.9 786.1 451.2 786.1 526.6C786.1 670.1 670.4 786.8 528.2 786.8Z" fill="#FEFEFE"/>
<path fill-rule="evenodd" clip-rule="evenodd" d="M545.3 142.6C556.4 172.5 576.2 203.7 607.5 240.7C611.5 245.4 612.8 251.7 611.1 257.6L556.5 443.4C554.8 449.3 555.5 455.6 558.5 461.1C561.5 466.5 566.4 470.5 572.3 472.2C574.4 472.8 576.5 473.2 578.7 473.2C589 473.2 598.2 466.3 601.1 456.5L641.5 318.7C643.3 312.4 648.4 307.6 654.7 306.1C656.1 305.767 657.534 305.6 659 305.6C663.9 305.6 668.7 307.6 672.2 311.3C727 369.3 795.2 441.6 795.2 526.6C795.2 675.1 675.5 795.9 528.2 795.9C381 795.9 261.2 675.1 261.2 526.6C261.2 442.6 327.1 373.7 390.9 307C440.1 255.4 491.1 202.1 511 143.1C513.5 135.8 520.3 130.9 528 130.7H528.2C535.8 130.7 542.6 135.5 545.3 142.6ZM279.4 526.6C279.4 665.3 390.8 777.8 528.2 777.8C665.7 777.8 777 665.3 777 526.6C777 451.9 719.8 388.2 659 323.8L618.5 461.6C613.2 479.6 596.6 491.3 578.7 491.3C574.9 491.3 571 490.8 567.1 489.7C545.3 483.3 532.7 460.2 539.1 438.3L593.6 252.4C565.8 219.6 541.9 185.6 528.2 148.9C480.9 289.4 279.4 387.9 279.4 526.6Z" fill="#1D2435"/>
<path d="M528.2 148.9C540.3 181.4 569.9 223.1 593.6 252.4L543.4 471.2C476.6 411.6 563.5 286.4 528.2 148.9Z" fill="#1D2435"/>
<path d="M777 526.6C777 665.3 665.6 777.8 528.2 777.8C433.9 777.8 351.9 724.8 309.7 646.7C350.4 676 400.2 693.3 454 693.3C591.4 693.3 702.8 580.9 702.8 442.2C702.8 400.4 684.9 362.1 658.5 325.2L659 323.8C719.8 388.2 777 451.9 777 526.6Z" fill="#1D2435"/>
</svg>
