<svg width="908" height="2362" viewBox="0 0 908 2362" fill="none" xmlns="http://www.w3.org/2000/svg">
<path d="M453.7 2142.9C266.5 2141 167.7 2056 163.6 2052.4C160.6 2049.7 159.7 2045.4 161.4 2041.8C310.4 1716.9 327.8 1458.7 316.1 1299.3C303.4 1127.2 255.4 1031 254.9 1030.1C253.5 1027.2 253.6 1023.9 255.3 1021.2C256.9 1018.5 259.9 1016.9 263 1016.9H644.6C647.8 1016.9 650.7 1018.5 652.3 1021.2C654 1023.9 654.1 1027.2 652.7 1030.1C652.2 1031 604 1128 591.5 1300.4C579.9 1459.6 597.4 1717.4 746.2 2041.8C747.9 2045.4 747 2049.7 744 2052.4C739.9 2056 641.1 2141 453.9 2142.9H453.8H453.7Z" fill="#FEFEFE"/>
<path fill-rule="evenodd" clip-rule="evenodd" d="M662.8 1025.9C662.8 1029.1 662 1032.1 660.6 1034.7C657 1042.1 612.7 1135.9 600.6 1299.9C589 1458.3 606.2 1714.8 754.5 2038C757.9 2045.3 756 2053.9 750 2059.2C745.8 2062.9 644.5 2150.1 454 2152H453.6C263.1 2150.1 161.8 2062.9 157.6 2059.2C151.6 2053.9 149.7 2045.3 153.1 2038C300.8 1716 318.4 1460.1 307.1 1302.2C295 1131.3 247.3 1035.1 246.8 1034.2C243.9 1028.5 244.2 1021.8 247.5 1016.4C250.8 1011 256.7 1007.8 263 1007.8H644.6C654.7 1007.8 662.8 1015.9 662.8 1025.9V1025.9ZM263 1025.9C263 1025.9 459.8 1413.2 169.6 2045.6C169.6 2045.6 267.8 2132 453.8 2133.8C639.8 2132 738 2045.6 738 2045.6C447.8 1413.2 644.6 1025.9 644.6 1025.9H263Z" fill="#1D2435"/>
<path d="M343.9 2122.1C822.4 990.8 330.6 1013.3 306.5 1164.4C287.5 1074.2 263 1025.9 263 1025.9H644.6C644.6 1025.9 447.8 1413.2 738 2045.6C738 2045.6 639.8 2132 453.8 2133.8C412.9 2133.4 376.2 2128.9 343.9 2122.1Z" fill="#1D2435"/>
<path d="M453.8 916.5C404.1 916.5 358.2 911 328 901.5C325.4 900.7 323.3 898.7 322.3 896.2C300.7 842.2 227.5 661.3 191.5 600.9C171 566.5 170.4 528.6 189.8 494.4C227.1 428.7 328.3 387.8 453.8 387.8C579.3 387.8 680.5 428.7 717.8 494.4C737.3 528.6 736.6 566.5 716.1 600.9C680.1 661.3 606.9 842.2 585.3 896.2C584.3 898.7 582.2 900.7 579.6 901.5C549.4 911 503.5 916.5 453.8 916.5Z" fill="#FEFEFE"/>
<path fill-rule="evenodd" clip-rule="evenodd" d="M453.8 396.9C657.4 396.9 763.8 503.2 708.3 596.3C672.3 656.5 601.4 831.5 576.9 892.8C548.8 901.7 504.2 907.4 453.8 907.4C403.5 907.4 358.8 901.7 330.7 892.8C306.2 831.5 235.3 656.5 199.3 596.3C143.8 503.2 250.2 396.9 453.8 396.9V396.9ZM453.8 378.7C325 378.7 220.9 421.3 181.9 489.9C160.8 527.1 161.4 568.2 183.7 605.6C219.4 665.4 292.3 845.7 313.8 899.6C315.9 904.6 320 908.5 325.3 910.1C356.3 920 403.2 925.6 453.8 925.6C504.4 925.6 551.3 920 582.3 910.2C587.5 908.5 591.7 904.6 593.8 899.6C615.3 845.7 688.2 665.4 723.9 605.6C746.2 568.2 746.8 527.1 725.7 489.9C686.8 421.3 582.6 378.7 453.8 378.7V378.7Z" fill="#1D2435"/>
<path d="M708.3 596.3C664.4 669.8 576.9 892.8 576.9 892.8L497.6 914.4C497.6 914.4 778.4 579.3 199.3 596.3C188.6 578.3 184 559.8 184.9 541.6C232.4 549.9 291.8 554.9 356.3 554.9C512.4 554.9 639 525.9 639 490.2C639.4 448.3 591.7 407.5 453.8 396.9C657.4 396.9 763.8 503.2 708.3 596.3V596.3Z" fill="#1D2435"/>
<path d="M453.8 1065.8C319.6 1065.8 218.3 1027.2 218.3 976C218.3 952.8 238.7 931.9 277.2 915.6C278.333 915.133 279.5 914.9 280.7 914.9C284 914.9 287.1 916.7 288.8 919.7C291 923.9 289.6 929 285.7 931.6C280.3 935.1 278.8 937.8 278.8 938.8C278.8 950.5 340.6 973.3 453.8 973.3C567.1 973.3 628.9 950.5 628.9 938.8C628.9 937.8 627.4 935.1 622 931.6C618 929 616.7 923.9 618.9 919.7C620.5 916.7 623.7 914.9 626.9 914.9C628.1 914.9 629.3 915.133 630.5 915.6C669 931.9 689.4 952.8 689.4 976C689.4 1027.2 588.1 1065.8 453.8 1065.8V1065.8Z" fill="#FEFEFE"/>
<path fill-rule="evenodd" clip-rule="evenodd" d="M634 907.2C687.3 929.7 698.5 957 698.5 976C698.5 1041 575.4 1074.9 453.8 1074.9C332.3 1074.9 209.2 1041 209.2 976C209.2 957 220.4 929.7 273.7 907.2C276 906.2 278.4 905.8 280.7 905.8C287.3 905.8 293.5 909.3 296.8 915.4C301.1 923.6 298.6 933.7 291 939C306.8 949.1 362.5 964.2 453.8 964.2C545.1 964.2 600.9 949.1 616.6 939C609 933.7 606.5 923.6 610.9 915.4C614.1 909.3 620.4 905.8 626.9 905.8C629.3 905.8 631.7 906.2 634 907.2V907.2ZM637.9 938.8C637.9 962.9 555.5 982.4 453.8 982.4C352.2 982.4 269.7 962.9 269.7 938.8C269.7 933.6 273.6 928.6 280.7 924C247.5 938 227.4 956.2 227.4 976C227.4 1020.6 328.8 1056.7 453.8 1056.7C578.9 1056.7 680.3 1020.6 680.3 976C680.3 956.2 660.2 938 626.9 924C634.1 928.6 637.9 933.6 637.9 938.8Z" fill="#1D2435"/>
<path d="M680.3 976C680.3 1020.6 578.9 1056.7 453.8 1056.7C358 1056.7 276.1 1035.5 243.1 1005.5C481.3 1093.3 691.4 990.4 620.1 957.6C631.5 951.9 637.9 945.5 637.9 938.8C637.9 933.6 634.1 928.6 626.9 924C660.2 938 680.3 956.2 680.3 976Z" fill="#1D2435"/>
<path d="M453.8 999.5C357.7 999.5 255.6 972.6 255.6 922.9C255.6 908.9 264.3 888.6 305.7 871.1C306.833 870.567 308 870.3 309.2 870.3C312.5 870.3 315.6 872.1 317.3 875.2C319.5 879.3 318.1 884.5 314.2 887.1C310.3 889.6 309.2 891.5 309.1 891.9C310.7 901.1 363.2 919.2 453.8 919.2C544.5 919.2 597 901.1 598.5 891.8C598.5 891.5 597.4 889.6 593.5 887.1C589.5 884.5 588.2 879.3 590.4 875.2C592 872.1 595.2 870.3 598.4 870.3C599.6 870.3 600.8 870.567 602 871.1C643.4 888.6 652.1 908.9 652.1 922.9C652.1 972.6 549.9 999.5 453.8 999.5Z" fill="#FEFEFE"/>
<path fill-rule="evenodd" clip-rule="evenodd" d="M605.5 862.7C651.5 882.1 661.2 906.2 661.2 922.9C661.2 979.1 556.9 1008.5 453.8 1008.5C350.8 1008.5 246.5 979.1 246.5 922.9C246.5 906.2 256.1 882.1 302.2 862.7C304.5 861.7 306.9 861.3 309.2 861.3C315.8 861.3 322 864.8 325.3 870.9C328.9 877.7 327.8 885.8 323 891.4C339.3 899.3 384.5 910.1 453.8 910.1C523.1 910.1 568.4 899.3 584.7 891.4C579.9 885.8 578.8 877.7 582.4 870.9C585.6 864.8 591.9 861.3 598.4 861.3C600.8 861.3 603.2 861.7 605.5 862.7V862.7ZM607.6 891.9C607.6 912 538.8 928.3 453.8 928.3C368.9 928.3 300 912 300 891.9C300 887.5 303.3 883.3 309.2 879.4C281.4 891.2 264.7 906.3 264.7 922.9C264.7 960.2 349.4 990.4 453.8 990.4C558.3 990.4 643 960.2 643 922.9C643 906.3 626.2 891.2 598.4 879.4C604.4 883.3 607.6 887.5 607.6 891.9V891.9Z" fill="#1D2435"/>
<path d="M643 922.9C643 960.2 558.3 990.4 453.8 990.4C373.8 990.4 305.4 972.6 277.8 947.6C476.8 1020.9 652.3 934.9 592.8 907.5C602.3 902.8 607.6 897.5 607.6 891.9C607.6 887.5 604.4 883.3 598.4 879.4C626.2 891.2 643 906.3 643 922.9V922.9Z" fill="#1D2435"/>
<path d="M453.8 2352.9C204.4 2352.9 9.09961 2280.7 9.09961 2188.5C9.09961 2147.4 46.4996 2109.9 117.3 2080C118.433 2079.53 119.6 2079.3 120.8 2079.3C124.1 2079.3 127.2 2081.1 128.8 2084.1C131.1 2088.3 129.7 2093.5 125.8 2096C118 2101.1 108.7 2108.9 108.7 2117C108.7 2148.2 240 2191.7 453.8 2191.7C667.7 2191.7 798.9 2148.2 798.9 2117C798.9 2108.9 789.7 2101.1 781.9 2096C777.9 2093.5 776.6 2088.3 778.8 2084.1C780.5 2081.1 783.6 2079.3 786.9 2079.3C788.1 2079.3 789.266 2079.53 790.4 2080C861.2 2109.9 898.6 2147.4 898.6 2188.5C898.6 2280.7 703.2 2352.9 453.8 2352.9V2352.9Z" fill="#FEFEFE"/>
<path fill-rule="evenodd" clip-rule="evenodd" d="M793.9 2071.7C868.3 2103.1 907.7 2143.5 907.7 2188.5C907.7 2238.3 858.1 2283.4 768 2315.5C683.8 2345.5 572.2 2362 453.8 2362C335.4 2362 223.9 2345.5 139.7 2315.5C49.6 2283.4 0 2238.3 0 2188.5C0 2143.5 39.3 2103.1 113.7 2071.7C116 2070.7 118.4 2070.2 120.8 2070.2C127.3 2070.2 133.6 2073.8 136.9 2079.9C141.3 2088.2 138.6 2098.5 130.8 2103.6C120.5 2110.3 117.8 2115.3 117.8 2117C117.8 2121.3 133.1 2141 207.6 2158.6C273.1 2174.1 360.6 2182.7 453.8 2182.7C547.1 2182.7 634.5 2174.1 700.1 2158.6C774.6 2141 789.8 2121.3 789.8 2117C789.8 2115.3 787.1 2110.3 776.9 2103.6C769 2098.5 766.4 2088.2 770.8 2079.9C774.1 2073.8 780.3 2070.2 786.9 2070.2C789.2 2070.2 791.6 2070.7 793.9 2071.7V2071.7ZM808 2117C808 2163.3 649.5 2200.8 453.8 2200.8C258.2 2200.8 99.6 2163.3 99.6 2117C99.6 2107 107.1 2097.3 120.8 2088.4C56.8 2115.4 18.2 2150.4 18.2 2188.5C18.2 2274.3 213.2 2343.8 453.8 2343.8C694.4 2343.8 889.5 2274.3 889.5 2188.5C889.5 2150.4 850.9 2115.4 786.9 2088.4C800.5 2097.3 808 2107 808 2117Z" fill="#1D2435"/>
<path d="M889.5 2188.5C889.5 2274.3 694.4 2343.8 453.8 2343.8C269.5 2343.8 112 2303 48.4004 2245.3C506.8 2414.2 910.8 2216.1 773.8 2153C795.7 2142.1 808 2129.9 808 2117C808 2107 800.5 2097.3 786.9 2088.4C850.9 2115.4 889.5 2150.4 889.5 2188.5Z" fill="#1D2435"/>
<path d="M453.8 2225.2C244.7 2225.2 80.7998 2164.2 80.7998 2086.4C80.7998 2053.2 109.5 2022.7 163.6 1998.1C164.8 1997.5 166.4 1997.2 167.7 1997.2C171 1997.2 174.2 1999.1 175.8 2002.1C178.5 2007.2 175.7 2011.3 173.3 2014.9C169.2 2020.9 167.1 2024.9 167 2026.6C167 2052.1 276.2 2087.6 453.8 2087.6C631.5 2087.6 740.6 2052.1 740.6 2026.6C740.6 2021.8 735.8 2016.1 727.1 2010.4C723.1 2007.8 721.8 2002.6 724 1998.5C725.6 1995.4 728.8 1993.6 732 1993.6C733.2 1993.6 734.4 1993.87 735.6 1994.4C795.3 2019.6 826.9 2051.4 826.9 2086.4C826.9 2164.2 663 2225.2 453.8 2225.2V2225.2Z" fill="#FEFEFE"/>
<path fill-rule="evenodd" clip-rule="evenodd" d="M739.1 1986C819.2 2019.8 836 2059.2 836 2086.4C836 2129.3 793.8 2168 717.3 2195.3C646.6 2220.4 553.1 2234.3 453.8 2234.3C354.6 2234.3 261 2220.4 190.4 2195.3C113.9 2168 71.7002 2129.3 71.7002 2086.4C71.7002 2060.6 87.0002 2022.9 159.9 1989.8C162.367 1988.67 164.967 1988.1 167.7 1988.1C174.4 1988.1 180.7 1991.9 183.8 1997.8C189.1 2007.7 183.5 2016 180.8 2020C179.8 2021.5 177.5 2024.9 176.4 2027.2C179 2032.3 196.9 2046.9 254.4 2059.7C308.3 2071.8 379.1 2078.5 453.8 2078.5C528.5 2078.5 599.4 2071.8 653.3 2059.7C712.7 2046.4 729.9 2031.3 731.5 2026.7C731.1 2025.9 729.4 2022.7 722.1 2018C714.2 2012.8 711.6 2002.5 716 1994.2C719.2 1988.1 725.5 1984.6 732 1984.6C734.4 1984.6 736.8 1985 739.1 1986ZM749.7 2026.6C749.7 2065.3 617.2 2096.7 453.8 2096.7C290.4 2096.7 158 2065.3 158 2026.6C158 2018.6 169 2006.3 167.7 2006.3L167.4 2006.4C118.9 2028.4 89.9002 2056.2 89.9002 2086.4C89.9002 2158 252.8 2216.1 453.8 2216.1C654.8 2216.1 817.8 2158 817.8 2086.4C817.8 2054.5 785.5 2025.3 732 2002.7C743.5 2010.2 749.7 2018.2 749.7 2026.6Z" fill="#1D2435"/>
<path d="M817.8 2086.4C817.8 2158 654.8 2216.1 453.8 2216.1C299.8 2216.1 168.3 2182 115.1 2133.8C498 2274.9 835.6 2109.4 721.1 2056.7C739.4 2047.6 749.7 2037.4 749.7 2026.6C749.7 2018.2 743.5 2010.2 732 2002.7C785.5 2025.3 817.8 2054.5 817.8 2086.4V2086.4Z" fill="#1D2435"/>
<path d="M429 354.8C408.8 354.8 392.4 338.4 392.4 318.2L392.5 316.9L407.5 212.4L347.8 224.3C347.2 224.433 346.6 224.5 346 224.5C325.8 224.5 309.4 208.1 309.4 187.9V138.2C309.4 118 325.8 101.6 346 101.6C346.6 101.6 347.2 101.667 347.8 101.8L405.7 113.3L392.6 47.4001C392.467 46.8001 392.4 46.2001 392.4 45.6001C392.4 25.5001 408.8 9.1001 429 9.1001H478.7C498.9 9.1001 515.3 25.5001 515.3 45.6001C515.3 46.2001 515.234 46.8001 515.1 47.4001L502 113.3L559.9 101.8C560.5 101.667 561.1 101.6 561.7 101.6C581.8 101.6 598.3 118 598.3 138.2V187.9C598.3 208.1 581.8 224.5 561.7 224.5C561.1 224.5 560.5 224.433 559.9 224.3L500.2 212.4L515.2 316.9L515.3 318.2C515.3 338.4 498.9 354.8 478.7 354.8H429Z" fill="#FEFEFE"/>
<path fill-rule="evenodd" clip-rule="evenodd" d="M524.4 45.6C524.4 46.8 524.266 48 524 49.2L513.6 101.8L558.1 92.9C559.3 92.6333 560.5 92.5 561.7 92.5C586.9 92.5 607.3 113 607.3 138.2V187.9C607.3 213.1 586.9 233.6 561.7 233.6C560.5 233.6 559.3 233.467 558.1 233.2L511 223.9L524.2 315.6C524.333 316.467 524.4 317.333 524.4 318.2C524.4 343.4 503.9 363.9 478.7 363.9H429C403.8 363.9 383.3 343.4 383.3 318.2C383.3 317.333 383.366 316.467 383.5 315.6L396.6 223.9L349.5 233.2C348.366 233.467 347.2 233.6 346 233.6C320.8 233.6 300.3 213.1 300.3 187.9V138.2C300.3 113 320.8 92.5 346 92.5C347.2 92.5 348.366 92.6333 349.5 92.9L394.1 101.8L383.7 49.2C383.433 48 383.3 46.8 383.3 45.6C383.3 20.4 403.8 0 429 0H478.7C503.9 0 524.4 20.4 524.4 45.6V45.6ZM429 18.2C413.9 18.2 401.5 30.5 401.5 45.6L417.3 124.9L346 110.7C330.9 110.7 318.5 123.1 318.5 138.2V187.9C318.5 203 330.9 215.4 346 215.4L418.3 201L401.5 318.2C401.5 333.3 413.9 345.7 429 345.7H478.7C493.8 345.7 506.2 333.3 506.2 318.2L489.4 201L561.7 215.4C576.8 215.4 589.2 203 589.2 187.9V138.2C589.2 123.1 576.8 110.7 561.7 110.7L490.4 124.9L506.2 45.6C506.2 30.5 493.8 18.2 478.7 18.2H429Z" fill="#1D2435"/>
<path d="M589.2 138.2V187.9C589.2 203 576.8 215.4 561.7 215.4L489.4 201L506.2 318.2C506.2 333.3 493.8 345.7 478.7 345.7H450.1L494.2 163.1L450.1 18.2H478.7C493.8 18.2 506.2 30.5 506.2 45.6L490.4 124.9L561.7 110.7C576.8 110.7 589.2 123.1 589.2 138.2V138.2Z" fill="#1D2435"/>
<path d="M479.8 142.2L547.1 125.8C547.1 125.8 572 116.8 580.5 139.6C589 162.4 479.8 142.2 479.8 142.2V142.2Z" fill="#FEFEFE"/>
<path d="M453.8 212.5C426.6 212.5 404.4 190.3 404.4 163.1C404.4 135.8 426.6 113.6 453.8 113.6C481.1 113.6 503.3 135.8 503.3 163.1C503.3 190.3 481.1 212.5 453.8 212.5Z" fill="#FEFEFE"/>
<path fill-rule="evenodd" clip-rule="evenodd" d="M512.4 163.1C512.4 195.3 486.1 221.6 453.8 221.6C421.6 221.6 395.3 195.3 395.3 163.1C395.3 130.8 421.6 104.5 453.8 104.5C486.1 104.5 512.4 130.8 512.4 163.1ZM413.5 163.1C413.5 185.3 431.6 203.4 453.8 203.4C476.1 203.4 494.2 185.3 494.2 163.1C494.2 140.8 476.1 122.7 453.8 122.7C431.6 122.7 413.5 140.8 413.5 163.1Z" fill="#1D2435"/>
<path d="M402.4 399.1C385.2 399.1 371.2 385.1 371.2 367.9C371.2 350.6 385.2 336.6 402.4 336.6H505.2C522.5 336.6 536.5 350.6 536.5 367.9C536.5 385.1 522.5 399.1 505.2 399.1H402.4Z" fill="#FEFEFE"/>
<path fill-rule="evenodd" clip-rule="evenodd" d="M545.6 367.9C545.6 390.1 527.5 408.2 505.2 408.2H402.4C380.2 408.2 362.1 390.1 362.1 367.9C362.1 345.6 380.2 327.5 402.4 327.5H505.2C527.5 327.5 545.6 345.6 545.6 367.9ZM402.4 345.7C390.2 345.7 380.3 355.7 380.3 367.9C380.3 380 390.2 390 402.4 390H505.2C517.4 390 527.4 380 527.4 367.9C527.4 355.7 517.4 345.7 505.2 345.7H402.4Z" fill="#1D2435"/>
<path d="M527.4 367.9C527.4 380 517.4 390 505.2 390H461.4C473.6 390 483.6 380 483.6 367.9C483.6 355.7 473.6 345.7 461.4 345.7H505.2C517.4 345.7 527.4 355.7 527.4 367.9Z" fill="#1D2435"/>
</svg>
