<svg width="1189" height="1920" viewBox="0 0 1189 1920" fill="none" xmlns="http://www.w3.org/2000/svg">
<path d="M959.4 68L908.2 268.4L714.4 138.3C714.4 138.3 822.4 24.4 959.4 68Z" fill="#1D2435"/>
<path d="M283.2 1690.1C279.5 1690.1 276.1 1687.7 274.9 1684.2C262.4 1647.2 287.5 1598.8 327.3 1529.1C373.1 1448.9 322 1386.3 244.6 1291.6C145 1169.7 8.7002 1002.7 8.7002 695C8.7002 187.5 417.6 111.8 661.4 111.8H713.7C831.3 111.8 934 187.2 969.2 299.4H969.1C969.3 299.933 969.433 300.533 969.5 301.2C969.7 303.6 994.6 542.6 1109.4 571.6C1114 572.8 1116.8 577.4 1115.7 582.1C1084.9 714.4 957 731.3 955.7 731.5H954.7C952.1 731.5 949.7 730.4 948 728.4C947.3 727.6 876.4 647.2 714.5 647.2H713.7C710.767 647.2 707.833 647.133 704.9 647C1058.3 894.1 1025.2 1172.6 998.4 1397.6C985.1 1509.4 973.7 1606 1012.7 1677.2C1014.2 1679.9 1014.2 1683.1 1012.6 1685.8C1011 1688.5 1008.2 1690.1 1005.1 1690.1H283.2Z" fill="#FEFEFE"/>
<path fill-rule="evenodd" clip-rule="evenodd" d="M713.7 120.5C829.7 120.5 927.9 196.8 960.8 302C960.8 302 984.3 549.1 1107.2 580.1C1077.4 708 954.7 722.8 954.7 722.8C954.7 722.8 883 638.4 714.5 638.4H713.7C699.3 638.4 685.2 637.2 671.5 635C1237.8 1006.6 882.8 1458.6 1005.1 1681.4H283.2C271.7 1647.7 296.6 1600.4 334.9 1533.4C446 1338.7 17.4 1237.4 17.4 695C17.4 176.8 448.4 120.5 661.4 120.5C671.9 120.5 693.6 120.5 713.7 120.5ZM713.7 103H661.4C499 103 357 136 250.7 198.4C84.3 296 0 463.1 0 695C0 1005.8 137.4 1174.2 237.8 1297.1C319.7 1397.4 360.6 1453.1 319.7 1524.7C278.7 1596.5 252.9 1646.6 266.7 1687C269.1 1694.1 275.7 1698.8 283.2 1698.8H1005.1C1011.3 1698.8 1017 1695.6 1020.1 1690.2C1023.3 1684.9 1023.4 1678.4 1020.4 1672.9C982.7 1604.2 994 1508.9 1007.1 1398.6C1020.8 1283.5 1036.3 1153.1 999.8 1019C962 880 874.4 760.8 732.7 656.2C878.3 661.8 940.7 733.3 941.4 734.1C944.7 738 949.6 740.3 954.7 740.3C955.367 740.3 956.067 740.233 956.8 740.1C958.1 740 991.4 735.8 1028.4 714.6C1062.9 694.9 1107.4 656.3 1124.2 584.1C1126.4 574.8 1120.7 565.5 1111.5 563.2C1020.4 540.2 984.4 365.6 978.2 300.3C978.067 298.9 977.767 297.567 977.3 296.3C960.1 241.5 925.1 192.3 878.8 157.8C830.8 122 773.7 103 713.7 103Z" fill="#1D2435"/>
<path d="M746 1633.7L376.8 1625.8C376.8 1625.8 436.3 1585.5 433 1450.6L358 1435.7L430.7 1414.2C427.8 1385.2 422.3 1352.6 413.2 1316L306.8 1330.8L398.9 1264.8C389.1 1233.2 377 1199 362 1162L222.4 1181.5L335.4 1100.5C322.5 1072.1 308 1042.2 291.8 1010.8L137.9 1032.2L257.7 946.4C246.2 923.5 236.1 900.3 227.7 876.9L85.6004 882.9L208 812C201.4 785 196.7 758.1 193.8 731.5L52.4004 705.7L190.3 662.6C190.5 630.3 193.3 598.9 198.5 568.7L80.5004 478.4L214.8 501.4C224.8 469.4 237.8 439.5 253.4 412.6L198.8 320.7L287.7 363.4C302.2 346 318.2 330.5 335.4 317.4L282 227.6L397.2 283C422.3 273.6 449.1 268.4 477.4 268.4C477.4 268.4 193 435.5 312.7 772.3C432.5 1109.2 769.3 1032.7 746 1633.7Z" fill="#1D2435"/>
<path d="M529.8 639.9C529.8 639.9 1138.6 1004.4 857.7 1703C857.7 1703 711.9 1737.8 642.2 1719.7C1037.5 1223.9 529.8 639.9 529.8 639.9Z" fill="#1D2435"/>
<path d="M529.8 639.9C529.8 639.9 1138.6 1004.4 857.7 1703C857.7 1703 711.9 1737.8 642.2 1719.7C1037.5 1223.9 529.8 639.9 529.8 639.9V639.9Z" fill="#1D2435"/>
<path d="M658.6 1910.3C366.3 1910.3 137.3 1826.2 137.3 1718.8C137.3 1671.4 180.9 1627.9 263.4 1593C264.5 1592.6 265.6 1592.3 266.8 1592.3C269.9 1592.3 272.9 1594 274.5 1597C276.6 1601 275.3 1605.9 271.5 1608.4C262 1614.6 250.6 1624.2 250.6 1634.7C250.6 1677.2 418.1 1724.6 658.6 1724.6C899 1724.6 1066.5 1677.2 1066.5 1634.7C1066.5 1624.2 1055.1 1614.6 1045.6 1608.4C1041.8 1605.9 1040.5 1601 1042.6 1597C1044.2 1594 1047.2 1592.3 1050.4 1592.3C1051.5 1592.3 1052.6 1592.6 1053.8 1593C1136.2 1627.9 1179.8 1671.4 1179.8 1718.8C1179.8 1826.2 950.9 1910.3 658.6 1910.3Z" fill="#FEFEFE"/>
<path fill-rule="evenodd" clip-rule="evenodd" d="M1057.2 1585C1143.1 1621.3 1188.6 1667.6 1188.6 1718.8C1188.6 1775.6 1131.1 1827.3 1026.8 1864.5C928.2 1899.7 797.4 1919.1 658.6 1919.1C519.7 1919.1 388.9 1899.7 290.3 1864.5C186 1827.3 128.6 1775.6 128.6 1718.8C128.6 1667.6 174 1621.3 260 1585C262.2 1584 264.5 1583.6 266.8 1583.6C273 1583.6 279.1 1587 282.2 1592.9C286.4 1600.9 283.9 1610.8 276.3 1615.7C265.7 1622.6 259.3 1629.7 259.3 1634.7C259.3 1644.1 282 1667.1 367.9 1687.5C445.4 1705.8 548.6 1715.9 658.6 1715.9C768.6 1715.9 871.8 1705.8 949.2 1687.5C1035.1 1667.1 1057.8 1644.1 1057.8 1634.7C1057.8 1629.7 1051.4 1622.6 1040.8 1615.7C1033.2 1610.8 1030.7 1600.9 1034.9 1592.9C1038.1 1587 1044.1 1583.6 1050.4 1583.6C1052.6 1583.6 1054.9 1584 1057.2 1585ZM1075.3 1634.7C1075.3 1689.2 888.7 1733.4 658.6 1733.4C428.4 1733.4 241.9 1689.2 241.9 1634.7C241.9 1622.9 250.7 1611.6 266.8 1601.1C191.5 1632.9 146 1674 146 1718.8C146 1819.8 375.5 1901.6 658.6 1901.6C941.6 1901.6 1171.1 1819.8 1171.1 1718.8C1171.1 1674 1125.6 1632.9 1050.4 1601.1C1066.5 1611.6 1075.3 1622.9 1075.3 1634.7Z" fill="#1D2435"/>
<path d="M1171.1 1718.8C1171.1 1819.8 941.6 1901.6 658.6 1901.6C441.7 1901.6 256.4 1853.5 181.5 1785.7C720.8 1984.4 1196.2 1751.3 1035 1677.1C1060.8 1664.2 1075.3 1649.9 1075.3 1634.7C1075.3 1622.9 1066.5 1611.6 1050.4 1601.1C1125.6 1632.9 1171.1 1674 1171.1 1718.8Z" fill="#1D2435"/>
<path d="M658.6 1760.1C413.6 1760.1 221.7 1689.2 221.7 1598.7C221.7 1560.5 255 1525.2 318 1496.6C319.1 1496.1 320.6 1495.7 321.9 1495.7C325.1 1495.7 328.2 1497.6 329.7 1500.4C332.3 1505.4 329.7 1509.3 326.9 1513.5C324.8 1516.6 319.2 1524.8 319.2 1528.4C319.2 1541.6 344.2 1561.5 414.4 1578.2C479.5 1593.6 566.2 1602.1 658.6 1602.1C750.9 1602.1 837.6 1593.6 902.7 1578.2C972.9 1561.5 997.9 1541.6 997.9 1528.4C997.9 1520.8 1003.5 1511.9 1019.1 1511.9C1024 1511.9 1030.8 1513 1035.5 1515.9C1074.7 1540.4 1095.5 1569.1 1095.5 1598.7C1095.5 1689.2 903.5 1760.1 658.6 1760.1Z" fill="#FEFEFE"/>
<path fill-rule="evenodd" clip-rule="evenodd" d="M337.4 1496.3C342.5 1505.9 337.2 1513.7 334.1 1518.4C332.8 1520.3 328.8 1526.1 328 1528.9C328.9 1534.8 346.3 1553.1 416.4 1569.7C480.9 1584.9 566.9 1593.3 658.6 1593.3C750.2 1593.3 836.2 1584.9 900.7 1569.7C972.9 1552.6 989.2 1533.7 989.2 1528.4C989.2 1516.2 998.6 1503.2 1019.1 1503.2C1022.9 1503.2 1032.5 1503.7 1040.2 1508.5C1093.1 1541.6 1104.2 1575.8 1104.2 1598.7C1104.2 1647.4 1055.5 1691.6 967.2 1723.1C884.5 1752.6 774.9 1768.8 658.6 1768.8C542.2 1768.8 432.6 1752.6 349.9 1723.1C261.6 1691.6 212.9 1647.4 212.9 1598.7C212.9 1556.8 248 1518.8 314.3 1488.6C316.8 1487.5 319.3 1487 321.9 1487C328.4 1487 334.4 1490.6 337.4 1496.3ZM321.6 1504.5C264.5 1530.5 230.4 1563.1 230.4 1598.7C230.4 1683 422.1 1751.3 658.6 1751.3C895 1751.3 1086.7 1683 1086.7 1598.7C1086.7 1571.3 1066.4 1545.5 1030.9 1523.3C1028.4 1521.7 1023.7 1520.6 1019.1 1520.6C1012.8 1520.6 1006.7 1522.7 1006.7 1528.4C1006.7 1573.9 850.8 1610.8 658.6 1610.8C466.3 1610.8 310.5 1573.9 310.5 1528.4C310.5 1519 323.5 1504.4 321.9 1504.4L321.6 1504.5Z" fill="#1D2435"/>
<path d="M1023 1518.6C1063.4 1541.9 1086.7 1569.3 1086.7 1598.7C1086.7 1683 895 1751.3 658.6 1751.3C477.4 1751.3 322.6 1711.2 260.1 1654.5C710.6 1820.5 1107.7 1625.8 973 1563.8C994.6 1553.1 1006.7 1541.1 1006.7 1528.4C1006.7 1518.5 1011.9 1512.1 1023 1518.6Z" fill="#1D2435"/>
<path d="M508.4 553.4C508.4 553.4 649 666.1 857.7 574.6C677.3 733 508.4 553.4 508.4 553.4Z" fill="#1D2435"/>
<path d="M910.4 370.9C910.4 370.9 838.1 313 730.9 360C823.6 278.6 910.4 370.9 910.4 370.9Z" fill="#1D2435"/>
<path d="M637.8 119.1C637.8 119.1 714.1 -3.52859e-05 873.9 9.29996L857.7 197.2" fill="#FEFEFE"/>
<path d="M645.2 123.8C642.6 127.9 637.2 129.1 633.1 126.5C629.1 123.9 627.9 118.5 630.5 114.4C630.9 113.8 649.1 85.5 686.4 57C723.6 28.5 780.2 0 856.4 0C862.267 0 868.267 0.200006 874.4 0.600006C876.8 0.700006 879 1.80001 880.5 3.60001C882.1 5.40001 882.8 7.7 882.6 10L866.4 198C866 202.8 861.8 206.4 857 205.9C852.2 205.5 848.6 201.3 849 196.5L865.2 8.5L873.9 9.29999L873.4 18C867.6 17.6667 861.934 17.5 856.4 17.5C785.3 17.5 732.9 43.8 697.8 70.3C662.8 96.8 645.3 123.6 645.2 123.8L643.2 122.6L645.2 123.8L643.2 122.6L645.2 123.8Z" fill="#1D2435"/>
<path d="M1054.5 653.7C1038.2 644.2 1032.7 623.3 1042.2 607.1C1051.7 590.8 1072.6 585.3 1088.9 594.8L1054.5 653.7Z" fill="#1D2435"/>
<path d="M869.6 348.7C869.6 348.7 873.2 383.7 885.8 388.2C867.8 409.9 797.5 404.4 786.6 389.1C843.8 409.9 862.8 382.8 862.8 382.8L869.6 348.7Z" fill="#1D2435"/>
</svg>
