<svg version="1.2" xmlns="http://www.w3.org/2000/svg" viewBox="0 0 1818 2476" width="1818" height="2476">
	<title>2876_SkVNQSBCUlkgMTUwNS0wNg-ai</title>
	<style>
		.s0 { fill: #fefefe } 
		.s1 { fill: #1d2435 } 
	</style>
	<g id="Capa 1">
		<path id="&lt;Path&gt;" class="s0" d="m909.2 800.4c-113.2 0-205.3-91.6-205.3-204.2 0-112.6 92.1-204.2 205.3-204.2 113.2 0 205.3 91.6 205.3 204.2 0 112.6-92.1 204.2-205.3 204.2z"/>
		<path id="&lt;Compound Path&gt;" fill-rule="evenodd" class="s1" d="m1123.3 596.2c0 117.4-96.1 213-214.1 213-118 0-214.1-95.6-214.1-213 0-117.4 96.1-213 214.1-213 118 0 214.1 95.6 214.1 213zm-410.7 0c0 108 88 195.5 196.6 195.5 108.6 0 196.6-87.5 196.6-195.5 0-108-88-195.5-196.6-195.5-108.6 0-196.6 87.5-196.6 195.5z"/>
		<path id="&lt;Path&gt;" class="s1" d="m1105.8 596.2c0 108-88 195.5-196.6 195.5-104.4 0-189.8-81-196.2-183.3 34.5 56.3 96.9 94 168.1 94 108.5 0 196.6-87.6 196.6-195.5 0-4.1-0.2-8.2-0.5-12.2 18.2 29.5 28.6 64.3 28.6 101.5z"/>
		<path id="&lt;Path&gt;" class="s1" d="m847.9 457c46.1 0 83.4 37.1 83.4 82.9 0 45.8-37.3 82.9-83.4 82.9-46 0-83.4-37.1-83.4-82.9 0-45.8 37.4-82.9 83.4-82.9z"/>
		<path id="&lt;Path&gt;" class="s0" d="m908.8 1837.7c-219.5-2.2-335.1-101.2-340-105.4-2.9-2.6-3.8-6.8-2.1-10.3 174.1-377.5 195.4-586.7 182.6-695.7-13.7-116.3-68.2-145.1-68.7-145.4-3.6-1.8-5.5-5.9-4.6-9.8 0.9-3.9 4.4-6.7 8.5-6.7h448.9c4 0 7.6 2.8 8.5 6.8 0.9 3.9-1 8-4.7 9.8-0.5 0.2-54.9 29-68.6 145.3-12.9 109 8.4 318.2 182.6 695.7 1.6 3.5 0.7 7.7-2.2 10.3-4.8 4.2-120.5 103.2-340 105.4h-0.1z"/>
		<path id="&lt;Compound Path&gt;" fill-rule="evenodd" class="s1" d="m1150.9 873.1c0 7-4.1 13-10 15.8-2.6 1.4-49.9 29.4-63.3 135.2-13.5 107.9 6.9 315.8 181.5 694.3 3.3 7 1.5 15.3-4.3 20.4-5 4.3-123 105.4-345.7 107.6h-0.2-0.2c-222.7-2.2-340.7-103.3-345.6-107.6-5.8-5.1-7.6-13.4-4.4-20.4 172-372.8 194.1-579.7 182.3-687.6-12.4-113.5-63.9-141.8-64.2-142-7.3-3.5-11.2-11.7-9.4-19.6 1.9-7.9 8.9-13.5 17.1-13.5h448.9c9.7 0 17.5 7.8 17.5 17.4zm-466.4 0c0 0 231.4 112.8-109.9 852.6 0 0 115.5 101.1 334.3 103.2 218.8-2.1 334.3-103.2 334.3-103.2-341.3-739.8-109.8-852.6-109.8-852.6zm448.9 0m0 17.5z"/>
		<path id="&lt;Path&gt;" class="s1" d="m779.6 1815.3c351.9-709.8 6.2-971.2-22.2-794.4-22.3-105.5-72.9-147.8-72.9-147.8h448.9c0 0-231.5 112.8 109.8 852.6 0 0-115.5 101.1-334.3 103.2-48.1-0.5-91.3-5.7-129.3-13.6z"/>
		<path id="&lt;Path&gt;" class="s0" d="m909 917.9c-154.3 0-275.2-45.3-275.2-103.2 0-26.4 23.6-50.2 68.1-68.9 1.1-0.5 2.3-0.7 3.4-0.7 3.2 0 6.2 1.7 7.7 4.6 2.1 4 0.9 9-2.9 11.4-5.7 3.7-9 7.4-9 10.1 0 14.8 71.4 42.3 207.9 42.3 136.4 0 207.8-27.5 207.8-42.3 0-2.7-3.3-6.4-8.9-10.1-3.8-2.4-5.1-7.4-3-11.4 1.5-2.9 4.6-4.6 7.7-4.6q1.7 0 3.4 0.7c44.5 18.7 68.1 42.5 68.1 68.9 0 57.9-120.9 103.2-275.1 103.2z"/>
		<path id="&lt;Compound Path&gt;" fill-rule="evenodd" class="s1" d="m1119.4 737.7c60.7 25.5 73.4 56 73.4 77 0 72.7-146.2 111.9-283.8 111.9-137.7 0-283.9-39.2-283.9-111.9 0-21 12.7-51.5 73.4-77 2.2-0.9 4.5-1.4 6.8-1.4 6.3 0 12.3 3.5 15.4 9.4 4.3 7.9 1.7 17.8-5.9 22.8-1.7 1.1-2.9 2-3.7 2.8 4.9 4.4 20.7 13.3 57.9 21 38.5 8 88.2 12.4 140 12.4 51.7 0 101.4-4.4 139.9-12.4 37.2-7.7 53-16.6 57.9-21-0.8-0.8-2-1.7-3.7-2.8-7.6-5-10.2-14.9-5.9-22.8 3.1-5.9 9.1-9.4 15.4-9.4 2.3 0 4.6 0.5 6.8 1.4zm6.2 33.5c0 28.2-97 51-216.6 51-119.7 0-216.6-22.8-216.6-51 0-6.1 4.5-12 12.9-17.4-39.1 16.5-62.8 37.7-62.8 60.9 0 52.2 119.3 94.5 266.5 94.5 147.1 0 266.4-42.3 266.4-94.5 0-23.2-23.7-44.4-62.8-60.9 8.4 5.4 13 11.3 13 17.4z"/>
		<path id="&lt;Path&gt;" class="s1" d="m1175.4 814.7c0 52.2-119.3 94.5-266.4 94.5-112.8 0-209.1-24.9-248-60 280.3 102.8 527.4-17.7 443.6-56.1 13.4-6.6 21-14.1 21-21.9 0-6.1-4.6-12-13-17.4 39.1 16.5 62.8 37.7 62.8 60.9z"/>
		<path id="&lt;Path&gt;" class="s0" d="m909 840.2c-131.9 0-231.3-37.7-231.3-87.6 0-12.9 6.8-32.1 39.5-50.2 1.3-0.7 2.8-1.1 4.3-1.1q1.3 0 2.5 0.4c2.3 0.7 4.2 2.3 5.2 4.4 0.2 0.2 27.2 44 179.8 44 30.8 0 58.1-1.7 81.4-4.6v-0.2c0-4.8 3.9-8.7 8.7-8.7 4.1 0 7.5 2.8 8.5 6.6 44.3-7 70.5-17.8 73.4-26.3 1.3-3.6 4.7-5.8 8.3-5.8l1.1 0.1c1.3-0.1 3.5-0.4 6-0.7 5.5-0.6 9.3-1.1 11.8-1.1 1.9 0 4.2 0.2 6.4 1.9 17 12.5 25.6 26.3 25.6 41.3 0 49.9-99.4 87.6-231.2 87.6z"/>
		<path id="&lt;Compound Path&gt;" fill-rule="evenodd" class="s1" d="m726.6 693.4c4.5 1.3 8.2 4.5 10.4 8.7 0.2 0.4 29.1 39.3 172 39.3 100 0 156.6-18.4 164-28q0.9-2.1 2.2-3.9l1-1.3c3.2-3.6 7.9-5.9 13.1-5.9l1.1 0.1c1.3-0.2 3.4-0.4 5-0.6 5.8-0.7 9.9-1.1 12.8-1.1 1.7 0 6.8 0 11.6 3.5 24.1 17.7 29.2 36.1 29.2 48.4 0 63.2-120.8 96.4-240 96.4-119.3 0-240.1-33.2-240.1-96.4 0-15.3 7.7-37.7 44.1-57.8 2.6-1.5 5.5-2.2 8.5-2.2q2.5 0 5.1 0.8zm-40.2 59.2c0 43.6 99.6 78.9 222.6 78.9 122.9 0 222.5-35.3 222.5-78.9 0-12.3-7.9-23.9-22-34.3-0.2-0.1-0.6-0.1-1.3-0.1-3.9 0-15.8 1.7-18.4 1.7l-0.5-0.1c-7.7 21.9-85.5 39-180.3 39-162.5 0-187.5-48.7-187.5-48.7-22.2 12.2-35.1 26.8-35.1 42.5zm402.9-32.8zm0 0m0 17.5z"/>
		<path id="&lt;Path&gt;" class="s1" d="m1131.5 752.6c0 43.6-99.6 78.9-222.5 78.9-94.2 0-174.7-20.8-207.2-50.1 234.2 85.8 440.6-14.8 370.6-46.9 8.7-4.3 14.8-11.2 16.9-16.2l20.3-0.5c18.2 12.6 21.9 23.4 21.9 34.8z"/>
		<path id="&lt;Path&gt;" class="s0" d="m909 2083.4c-292.3 0-521.3-83.7-521.3-190.5 0-47.2 43.6-90.5 126.1-125.1 1.1-0.5 2.2-0.7 3.4-0.7 3.1 0 6.1 1.7 7.7 4.6 2.1 4 0.8 9-3 11.5-9.5 6.1-20.9 15.7-20.9 26.1 0 42.3 167.5 89.3 408 89.3 240.4 0 407.9-47 407.9-89.3 0-10.4-11.3-20-20.9-26.1-3.8-2.5-5.1-7.5-3-11.5 1.6-2.9 4.6-4.6 7.8-4.6q1.7 0 3.3 0.7c82.5 34.6 126.1 77.9 126.1 125.1 0 106.8-228.9 190.5-521.2 190.5z"/>
		<path id="&lt;Compound Path&gt;" fill-rule="evenodd" class="s1" d="m1307.5 1759.7c86 36.2 131.5 82.2 131.5 133.2 0 56.5-57.5 108-161.8 145-98.6 35-229.4 54.2-368.2 54.2-138.9 0-269.7-19.2-368.3-54.2-104.3-37-161.7-88.5-161.7-145 0-51 45.4-97 131.4-133.2 2.2-0.9 4.5-1.3 6.8-1.3 6.2 0 12.3 3.4 15.4 9.3 4.2 8 1.7 17.9-5.9 22.8-10.6 6.9-17 13.9-17 18.8 0 9.3 22.7 32.1 108.6 52.3 77.4 18.3 180.7 28.3 290.7 28.3 110 0 213.2-10 290.6-28.3 85.9-20.2 108.6-43 108.6-52.3 0-4.9-6.3-11.9-16.9-18.8-7.6-4.9-10.2-14.8-6-22.8 3.1-5.9 9.2-9.3 15.5-9.3 2.2 0 4.5 0.4 6.7 1.3zm18.2 49.6c0 54.2-186.6 98.1-416.7 98.1-230.2 0-416.7-43.9-416.7-98.1 0-11.8 8.8-23 24.9-33.5-75.3 31.7-120.8 72.5-120.8 117.1 0 100.4 229.5 181.8 512.6 181.8 283 0 512.5-81.4 512.5-181.8 0-44.6-45.5-85.4-120.7-117.1 16.1 10.5 24.9 21.7 24.9 33.5z"/>
		<path id="&lt;Path&gt;" class="s1" d="m1421.5 1892.9c0 100.4-229.5 181.8-512.5 181.8-216.9 0-402.2-47.8-477.1-115.3 539.3 197.6 1014.7-34.1 853.5-108 25.8-12.8 40.3-27 40.3-42.1 0-11.8-8.8-23-24.9-33.5 75.2 31.7 120.7 72.5 120.7 117.1z"/>
		<path id="&lt;Path&gt;" class="s0" d="m909 1934c-245 0-436.9-70.5-436.9-160.6 0-37.9 33.3-73.1 96.3-101.5 1.1-0.5 2.6-0.9 3.9-0.9 3.2 0 6.3 1.9 7.8 4.7 2.7 5 0 8.9-2.9 13.1-2.1 3-7.6 11.2-7.6 14.8 0 13 25 32.9 95.2 49.4 65.1 15.3 151.8 23.8 244.2 23.8 92.3 0 179-8.5 244.1-23.8 70.2-16.5 95.2-36.4 95.2-49.4 0-8.1-9.1-15.7-16.8-20.7-3.8-2.4-5.1-7.4-3-11.4 1.6-2.9 4.6-4.6 7.8-4.6q1.7 0 3.3 0.7c69.5 29.1 106.3 65.8 106.3 105.8 0 90.1-192 160.6-436.9 160.6z"/>
		<path id="&lt;Compound Path&gt;" fill-rule="evenodd" class="s1" d="m1243 1659.5c73 30.7 111.6 70.1 111.6 113.9 0 48.5-48.7 92.5-137.1 123.8-82.6 29.4-192.2 45.5-308.5 45.5-116.3 0-225.9-16.1-308.6-45.5-88.4-31.3-137.1-75.3-137.1-123.8 0-29 17.6-71.6 101.5-109.5 2.4-1.1 4.9-1.6 7.5-1.6 6.5 0 12.5 3.6 15.5 9.3 5.1 9.6-0.2 17.4-3.3 22.1-1.4 1.9-5.2 7.6-6.1 10.3 1 5.1 17.4 23.8 88.4 40.5 64.5 15.2 150.5 23.5 242.2 23.5 91.6 0 177.6-8.3 242.1-23.5 73.5-17.3 88.5-36.7 88.5-40.9 0-1.8-2.7-6.8-12.8-13.3-7.6-5-10.2-14.9-6-22.9 3.1-5.8 9.2-9.3 15.5-9.3 2.2 0 4.5 0.5 6.7 1.4zm14.1 44.1c0 45.2-155.9 81.9-348.1 81.9-192.3 0-348.1-36.7-348.1-81.9 0-9.4 13-23.9 11.4-23.9l-0.3 0.1c-57.1 25.8-91.2 58.3-91.2 93.6 0 83.9 191.7 151.9 428.2 151.9 236.4 0 428.1-68 428.1-151.9 0-37.3-38-71.4-100.8-97.8 13.4 8.7 20.8 18.1 20.8 28z"/>
		<path id="&lt;Path&gt;" class="s1" d="m1337.1 1773.4c0 83.9-191.7 151.9-428.1 151.9-181.2 0-336-40-398.5-96.4 450.5 165.2 847.6-28.5 712.9-90.2 21.6-10.6 33.7-22.6 33.7-35.1 0-9.9-7.4-19.3-20.8-28 62.8 26.4 100.8 60.5 100.8 97.8z"/>
	</g>
</svg>