<svg width="993" height="2243" viewBox="0 0 993 2243" fill="none" xmlns="http://www.w3.org/2000/svg">
<path d="M566 69.8C566 108.4 534.8 139.6 496.3 139.6C457.7 139.6 426.5 108.4 426.5 69.8C426.5 31.3 457.7 0 496.3 0C534.8 0 566 31.3 566 69.8Z" fill="#1D2435"/>
<path d="M438.8 174.2C420.4 174.2 405.4 159.2 405.4 140.8C405.4 122.4 420.4 107.4 438.8 107.4H551.6C570 107.4 585 122.4 585 140.8C585 159.2 570 174.2 551.6 174.2H438.8Z" fill="#FEFEFE"/>
<path fill-rule="evenodd" clip-rule="evenodd" d="M594.1 140.8C594.1 164.2 575 183.3 551.6 183.3H438.8C415.4 183.3 396.3 164.2 396.3 140.8C396.3 117.4 415.4 98.3 438.8 98.3H551.6C575 98.3 594.1 117.4 594.1 140.8ZM438.8 116.5C425.5 116.5 414.5 127.4 414.5 140.8C414.5 154.1 425.5 165.1 438.8 165.1H551.6C565 165.1 575.9 154.1 575.9 140.8C575.9 127.4 565 116.5 551.6 116.5H438.8Z" fill="#1D2435"/>
<path d="M575.9 140.8C575.9 154.1 565 165.1 551.6 165.1H503.5C516.9 165.1 527.8 154.1 527.8 140.8C527.8 127.4 516.9 116.5 503.5 116.5H551.6C565 116.5 575.9 127.4 575.9 140.8Z" fill="#1D2435"/>
<path d="M269.3 354.3C266 354.3 262.9 352.5 261.3 349.6C244.6 319.2 245.001 286.1 262.601 256.3C296.501 199 385.6 163.5 495.2 163.5C604.9 163.5 694 199 727.8 256.3C745.4 286.1 745.9 319.2 729.1 349.6C727.5 352.5 724.5 354.3 721.2 354.3H269.3Z" fill="#FEFEFE"/>
<path fill-rule="evenodd" clip-rule="evenodd" d="M495.2 172.6C672.4 172.6 766 263.9 721.2 345.2H269.3C224.5 263.9 318 172.6 495.2 172.6ZM495.2 154.4C382.4 154.4 290.3 191.7 254.8 251.7C235.5 284.3 235 320.7 253.3 354C256.5 359.8 262.6 363.4 269.3 363.4H721.2C727.8 363.4 733.9 359.8 737.1 354C755.4 320.7 754.9 284.3 735.6 251.7C700.2 191.7 608.1 154.4 495.2 154.4Z" fill="#1D2435"/>
<path d="M721.2 345.2H269.3C251.6 313.1 255.5 279.6 277.5 250.6C315.1 263.6 361.8 271.3 412.5 271.3C516.9 271.3 604.7 238.6 630 194.3C715.9 226.2 752.6 288.2 721.2 345.2Z" fill="#1D2435"/>
<path d="M476.2 19C491.3 19 503.5 31.2 503.5 46.3C503.5 61.5 491.3 73.7 476.2 73.7C461 73.7 448.8 61.5 448.8 46.3C448.8 31.2 461 19 476.2 19Z" fill="#FEFEFE"/>
<path d="M495.9 2002.8C290.9 2000.8 182.8 1907.7 178.3 1903.8C175.3 1901.1 174.3 1896.8 176 1893.2C339.6 1536.6 358.6 1253.2 345.8 1078.3C331.9 889.4 279.1 783.7 278.6 782.7C277.2 779.9 277.3 776.5 279 773.8C280.6 771.1 283.6 769.5 286.7 769.5H705.3C708.4 769.5 711.4 771.1 713 773.8C714.7 776.5 714.8 779.8 713.4 782.7C712.9 783.7 659.9 890.2 646.1 1079.5C633.5 1254.2 652.6 1537.2 816 1893.2C817.7 1896.8 816.7 1901.1 813.7 1903.8C809.2 1907.7 701.1 2000.8 496.1 2002.8H496H495.9Z" fill="#FEFEFE"/>
<path fill-rule="evenodd" clip-rule="evenodd" d="M723.5 778.6C723.5 781.7 722.7 784.7 721.3 787.2C717.5 795.1 668.1 899.8 655.1 1081.3C642.7 1254.7 662 1535.7 824.2 1889.4C827.6 1896.7 825.8 1905.3 819.7 1910.6C815.1 1914.7 704.6 2009.9 496.2 2011.9H495.8C287.5 2009.9 176.9 1914.7 172.3 1910.6C166.2 1905.3 164.4 1896.7 167.8 1889.4C330 1535.7 349.3 1254.7 336.9 1081.3C323.4 893.5 271 787.8 270.5 786.8C267.6 781.2 267.9 774.4 271.2 769C274.5 763.6 280.4 760.4 286.7 760.4H705.3C715.4 760.4 723.5 768.5 723.5 778.6ZM286.7 778.6C286.7 778.6 502.5 1203.3 184.3 1897C184.3 1897 292 1991.7 496 1993.7C700 1991.7 807.7 1897 807.7 1897C489.5 1203.3 705.3 778.6 705.3 778.6H286.7ZM705.2 778.6H705.3H705.2ZM705.2 796.7H705.3H705.2Z" fill="#1D2435"/>
<path d="M375.5 1980.9C900.3 740 360.8 764.7 334.4 930.4C313.6 831.5 286.7 778.6 286.7 778.6H705.3C705.3 778.6 489.5 1203.3 807.7 1897C807.7 1897 700 1991.7 496 1993.7C451.1 1993.3 410.9 1988.4 375.5 1980.9Z" fill="#1D2435"/>
<path d="M496 657.6C441.5 657.6 391.3 651.6 358.3 641.2C355.7 640.4 353.6 638.4 352.5 635.9C328.9 576.6 248.6 378.2 209 311.9C200.2 297 194.6 281.3 192.7 265.2C192.2 261.7 193.9 258.3 196.8 256.4C198.3 255.4 200 255 201.7 255C203.4 255 205.1 255.5 206.6 256.4C235.6 275 269.1 284.9 303.6 284.9C335.2 284.9 366.2 276.6 393.5 260.8C394.9 260 396.5 259.6 398.1 259.6C399.6 259.6 401.2 260 402.6 260.8C429.9 276.6 460.9 284.9 492.5 284.9C528.3 284.9 563 274.4 592.6 254.5C594.1 253.4 595.9 252.9 597.7 252.9C599.4 252.9 601.2 253.4 602.7 254.5C632.4 274.4 667 284.9 702.8 284.9C731.6 284.9 759.1 278.3 784.6 265.2C785.9 264.5 787.3 264.2 788.7 264.2C790.7 264.2 792.7 264.9 794.3 266.1C797.1 268.3 798.4 271.8 797.6 275.3C794.8 287.9 789.9 300.2 783 311.9C743.4 378.2 663.1 576.7 639.4 635.9C638.4 638.4 636.3 640.4 633.7 641.2C600.7 651.6 550.5 657.6 496 657.6Z" fill="#FEFEFE"/>
<path fill-rule="evenodd" clip-rule="evenodd" d="M607.8 246.9C635.9 265.8 668.8 275.8 702.8 275.8C730 275.8 756 269.6 780.1 257.3C782.5 256 785.3 255.2 788.1 255.1H788.2H788.7H788.8C798.8 255.1 806.9 263.3 806.9 273.3C806.9 274.967 806.7 276.567 806.3 278.1C803.3 291.4 798.1 304.3 790.8 316.5C751.6 382.3 671.5 580.2 647.9 639.3C645.9 644.4 641.7 648.2 636.5 649.9C602.6 660.6 551.4 666.7 496 666.7C440.6 666.7 389.4 660.6 355.5 649.9C350.3 648.2 346.1 644.3 344.1 639.3C320.5 580.2 240.4 382.3 201.2 316.5C191.7 300.5 185.8 283.6 183.6 266.3C182.8 259.3 186 252.4 192 248.7C195 246.8 198.3 245.9 201.7 245.9C205.1 245.9 208.5 246.9 211.5 248.8C239 266.5 270.9 275.8 303.6 275.8C333.6 275.8 363.1 267.9 388.9 252.9C391.8 251.3 394.9 250.5 398.1 250.5C401.2 250.5 404.4 251.3 407.2 252.9C433 267.9 462.5 275.8 492.5 275.8C526.5 275.8 559.4 265.8 587.5 246.9C590.6 244.8 594.1 243.8 597.7 243.8C601.2 243.8 604.7 244.8 607.8 246.9ZM492.5 294C458.1 294 425.8 284.7 398.1 268.7C370.3 284.7 338 294 303.6 294C266.1 294 231.1 283 201.7 264.1C203.5 278.5 208.4 293 216.9 307.2C256.3 373.3 334.1 565.3 361 632.5C391.8 642.2 440.8 648.5 496 648.5C551.2 648.5 600.2 642.2 631 632.5C657.9 565.3 735.7 373.4 775.1 307.2C781.8 296 786.2 284.7 788.7 273.3C763 286.5 733.8 294 702.8 294C663.9 294 627.7 282.2 597.7 262C567.6 282.2 531.4 294 492.5 294ZM788.7 273.3H788.8H788.7Z" fill="#1D2435"/>
<path d="M496 821.4C369.5 821.4 238.6 784.9 238.6 723.8C238.6 698.7 260.7 676 302.6 658.3C303.8 657.8 305 657.6 306.2 657.6C309.4 657.6 312.6 659.4 314.2 662.4C316.4 666.6 315.1 671.7 311.1 674.3C305.3 678.1 303.2 681.3 303.2 683C303.2 696.1 371.3 721.7 496 721.7C620.8 721.7 688.9 696.1 688.9 683C688.9 681.3 686.8 678.1 680.9 674.3C677 671.7 675.7 666.6 677.9 662.4C679.5 659.4 682.6 657.6 685.9 657.6C687.1 657.6 688.3 657.833 689.5 658.3C731.4 676 753.5 698.7 753.5 723.8C753.5 784.9 622.6 821.4 496 821.4Z" fill="#FEFEFE"/>
<path fill-rule="evenodd" clip-rule="evenodd" d="M693 649.9C750.5 674.3 762.6 703.5 762.6 723.8C762.6 746.4 747.9 778.5 677.8 803.5C629 820.9 564.4 830.5 496 830.5C427.7 830.5 363.1 820.9 314.3 803.5C244.2 778.5 229.5 746.4 229.5 723.8C229.5 703.5 241.5 674.3 299.1 649.9C301.4 649 303.8 648.5 306.2 648.5C312.7 648.5 319 652.1 322.2 658.2C326.6 666.5 324 676.8 316.1 681.9C315.433 682.367 314.867 682.767 314.4 683.1C328.8 694.5 390.6 712.6 496 712.6C601.5 712.6 663.3 694.5 677.7 683.1C677.233 682.767 676.667 682.367 676 681.9C668.1 676.8 665.4 666.5 669.9 658.2C673.1 652.1 679.4 648.5 685.9 648.5C688.3 648.5 690.7 649 693 649.9ZM698 683C698 709.4 607.6 730.8 496 730.8C384.5 730.8 294.1 709.4 294.1 683C294.1 677.3 298.4 671.8 306.2 666.7C269.7 682.1 247.7 702 247.7 723.8C247.7 772.7 358.9 812.3 496 812.3C633.2 812.3 744.4 772.7 744.4 723.8C744.4 702 722.4 682.1 685.9 666.7C693.7 671.8 698 677.3 698 683Z" fill="#1D2435"/>
<path d="M744.4 723.8C744.4 772.7 633.2 812.3 496 812.3C390.9 812.3 301.1 789 264.9 756.2C526.2 852.5 756.6 739.5 678.5 703.5C691 697.3 698 690.4 698 683C698 677.3 693.7 671.8 685.9 666.7C722.4 682.1 744.4 702 744.4 723.8Z" fill="#1D2435"/>
<path d="M496 748.6C391 748.6 279.4 719.5 279.4 665.5C279.4 643.9 298.3 624.5 333.9 609.5C335.034 609.033 336.2 608.8 337.4 608.8C340.7 608.8 343.8 610.5 345.5 613.6C347.7 617.7 346.3 622.9 342.4 625.5C337.5 628.6 336.4 630.9 336.4 631.5C336.4 640.7 390.7 662.3 496 662.3C601.3 662.3 655.6 640.7 655.6 631.5C655.6 630.9 654.5 628.6 649.7 625.5C645.7 622.9 644.4 617.7 646.6 613.6C648.2 610.5 651.4 608.8 654.7 608.8C655.834 608.8 657 609.033 658.2 609.5C693.8 624.5 712.6 643.9 712.6 665.5C712.6 719.5 601 748.6 496 748.6Z" fill="#FEFEFE"/>
<path fill-rule="evenodd" clip-rule="evenodd" d="M353.5 609.3C357.5 616.8 355.7 625.9 349.6 631.4C365.9 640.4 416.3 653.2 496 653.2C575.8 653.2 626.2 640.4 642.5 631.4C636.4 625.9 634.6 616.8 638.6 609.3C641.8 603.2 648.1 599.7 654.7 599.7C657 599.7 659.4 600.1 661.7 601.1C711.3 622.1 721.7 647.7 721.7 665.5C721.7 726 608.2 757.7 496 757.7C383.9 757.7 270.4 726 270.4 665.5C270.4 647.7 280.8 622.1 330.3 601.1C332.6 600.1 335 599.7 337.4 599.7C344 599.7 350.2 603.2 353.5 609.3ZM664.7 631.5C664.7 653.5 589.2 671.4 496 671.4C402.9 671.4 327.3 653.5 327.3 631.5C327.3 626.7 330.9 622.1 337.4 617.9C306.9 630.7 288.5 647.4 288.5 665.5C288.5 706.4 381.4 739.5 496 739.5C610.6 739.5 703.5 706.4 703.5 665.5C703.5 647.4 685.1 630.7 654.7 617.9C661.2 622.1 664.7 626.7 664.7 631.5Z" fill="#1D2435"/>
<path d="M703.5 665.5C703.5 706.4 610.6 739.5 496 739.5C408.2 739.5 333.2 720.1 302.9 692.6C521.2 773 713.7 678.7 648.4 648.6C658.9 643.4 664.7 637.6 664.7 631.5C664.7 626.7 661.2 622.1 654.7 617.9C685.1 630.7 703.5 647.4 703.5 665.5Z" fill="#1D2435"/>
<path d="M496 2233.2C223 2233.2 9.09961 2154.4 9.09961 2053.8C9.09961 2009.1 49.8996 1968.2 127.2 1935.6C128.333 1935.13 129.5 1934.9 130.7 1934.9C134 1934.9 137.2 1936.6 138.8 1939.7C141 1943.9 139.7 1949 135.7 1951.6C127 1957.3 116.6 1966 116.6 1975.3C116.6 2014.5 272.4 2058.2 496 2058.2C719.6 2058.2 875.5 2014.5 875.5 1975.3C875.5 1966 865.1 1957.3 856.4 1951.6C852.4 1949 851.1 1943.9 853.3 1939.7C854.9 1936.6 858.1 1934.9 861.3 1934.9C862.5 1934.9 863.7 1935.13 864.9 1935.6C942.1 1968.2 983 2009.1 983 2053.8C983 2154.4 769.1 2233.2 496 2233.2Z" fill="#FEFEFE"/>
<path fill-rule="evenodd" clip-rule="evenodd" d="M868.4 1927.2C949.3 1961.4 992.1 2005.2 992.1 2053.8C992.1 2107.5 938.1 2156.4 840 2191.4C747.9 2224.2 625.7 2242.3 496 2242.3C366.4 2242.3 244.2 2224.2 152 2191.4C54 2156.4 0 2107.5 0 2053.8C0 2005.2 42.8 1961.4 123.7 1927.2C126 1926.2 128.4 1925.8 130.7 1925.8C137.3 1925.8 143.6 1929.3 146.8 1935.4C151.2 1943.7 148.6 1954.1 140.7 1959.2C129.6 1966.4 125.7 1972.4 125.7 1975.3C125.7 1981.5 144 2003.4 225.5 2022.7C297.6 2039.7 393.6 2049.1 496 2049.1C598.4 2049.1 694.5 2039.7 766.6 2022.7C848 2003.4 866.4 1981.5 866.4 1975.3C866.4 1972.4 862.4 1966.4 851.4 1959.2C843.5 1954.1 840.8 1943.7 845.3 1935.4C848.5 1929.3 854.8 1925.8 861.3 1925.8C863.7 1925.8 866.1 1926.2 868.4 1927.2ZM884.6 1975.3C884.6 2026.1 710.6 2067.3 496 2067.3C281.5 2067.3 107.5 2026.1 107.5 1975.3C107.5 1964.3 115.7 1953.8 130.7 1944C60.6 1973.6 18.2 2011.9 18.2 2053.8C18.2 2147.9 232.1 2224.2 496 2224.2C760 2224.2 973.9 2147.9 973.9 2053.8C973.9 2011.9 931.5 1973.6 861.3 1944C876.3 1953.8 884.6 1964.3 884.6 1975.3Z" fill="#1D2435"/>
<path d="M973.9 2053.8C973.9 2147.9 760 2224.2 496 2224.2C293.8 2224.2 121.1 2179.3 51.2998 2116.1C554.1 2301.4 997.3 2084.1 847 2014.8C871 2002.9 884.6 1989.5 884.6 1975.3C884.6 1964.3 876.3 1953.8 861.3 1944C931.5 1973.6 973.9 2011.9 973.9 2053.8Z" fill="#1D2435"/>
<path d="M496 2093.2C267.1 2093.2 87.7002 2026.6 87.7002 1941.7C87.7002 1905.7 119 1872.5 178.1 1845.7C179.3 1845.1 180.8 1844.8 182.1 1844.8C185.5 1844.8 188.7 1846.7 190.3 1849.7C193 1854.8 190.2 1858.9 187.6 1862.8C185.8 1865.4 180.6 1873.1 180.6 1876.2C180.6 1904.5 300.6 1943.9 496 1943.9C691.5 1943.9 811.5 1904.5 811.5 1876.2C811.5 1870.6 806.1 1864 796.2 1857.6C792.3 1855 791 1849.9 793.2 1845.7C794.8 1842.7 797.9 1840.9 801.2 1840.9C802.4 1840.9 803.567 1841.13 804.7 1841.6C869.9 1869.1 904.3 1903.8 904.3 1941.7C904.3 2026.6 725 2093.2 496 2093.2Z" fill="#FEFEFE"/>
<path fill-rule="evenodd" clip-rule="evenodd" d="M808.3 1833.2C895.2 1870 913.4 1912.5 913.4 1941.7C913.4 1988 867.6 2029.8 784.4 2059.5C707.1 2087.1 604.7 2102.2 496 2102.2C387.4 2102.2 285 2087.1 207.7 2059.5C124.5 2029.8 78.7002 1988 78.7002 1941.7C78.7002 1914 95.3002 1873.3 174.3 1837.4C176.834 1836.27 179.467 1835.7 182.2 1835.7C188.9 1835.7 195.2 1839.5 198.3 1845.4C203.6 1855.4 198.1 1863.5 195.1 1867.9C193.9 1869.8 190.8 1874.3 189.8 1876.8C191.2 1881.4 207.4 1897.8 270.7 1912.8C330.7 1927 410.7 1934.8 496 1934.8C581.4 1934.8 661.4 1927 721.3 1912.8C788 1897.1 802.4 1879.7 802.4 1876.2C802.4 1875.4 800.5 1871.3 791.3 1865.2C783.4 1860.1 780.7 1849.8 785.1 1841.5C788.4 1835.4 794.7 1831.8 801.2 1831.8C803.6 1831.8 806 1832.3 808.3 1833.2ZM820.6 1876.2C820.6 1918.6 675.3 1953 496 1953C316.8 1953 171.5 1918.6 171.5 1876.2C171.5 1867.4 183.6 1853.9 182.1 1853.9L181.8 1854C128.6 1878.1 96.8002 1908.6 96.8002 1941.7C96.8002 2020.3 275.6 2084.1 496 2084.1C716.5 2084.1 895.2 2020.3 895.2 1941.7C895.2 1906.8 859.8 1874.8 801.2 1850C813.7 1858.2 820.6 1867 820.6 1876.2Z" fill="#1D2435"/>
<path d="M895.2 1941.7C895.2 2020.3 716.5 2084.1 496 2084.1C327.1 2084.1 182.8 2046.6 124.5 1993.8C544.5 2148.6 914.8 1967 789.2 1909.2C809.3 1899.2 820.6 1888 820.6 1876.2C820.6 1867 813.7 1858.2 801.2 1850C859.8 1874.8 895.2 1906.8 895.2 1941.7Z" fill="#1D2435"/>
<path d="M782.5 292.7C780.4 297.6 778 302.4 775.1 307.2C727 387.9 631 632.5 631 632.5L544.1 656.2C544.1 656.2 684.4 417.5 433.5 333.9C626.5 308.3 670.7 385 782.5 292.7Z" fill="#1D2435"/>
</svg>
