<svg width="1060" height="2020" viewBox="0 0 1060 2020" fill="none" xmlns="http://www.w3.org/2000/svg">
<path d="M529.885 1790.9C310.43 1788.37 194.754 1673.79 189.955 1668.96C187.056 1665.97 186.156 1661.25 187.856 1657.22C362.62 1218.69 383.515 929.708 370.118 764.625C355.721 586.313 299.633 510.271 299.033 509.466C296.733 506.59 296.233 502.333 297.633 498.767C299.033 495.201 302.132 492.9 305.631 492.9H754.439C757.838 492.9 760.938 495.201 762.338 498.767C763.837 502.333 763.237 506.59 760.938 509.581C760.438 510.271 704.25 586.313 689.853 764.625C676.555 929.708 697.351 1218.69 872.215 1657.22C873.815 1661.25 872.915 1665.97 870.015 1668.96C865.216 1673.79 749.54 1788.37 530.085 1790.9H529.985H529.885Z" fill="#FEFEFE"/>
<path fill-rule="evenodd" clip-rule="evenodd" d="M772.136 502.045C772.136 507.226 770.435 511.83 767.633 515.399C764.431 519.888 711.899 595.635 698.491 767.273C685.683 931.083 706.896 1217.72 880.403 1652.86C883.605 1660.92 881.904 1670.47 876.1 1676.34C871.197 1681.29 753.024 1798.37 530.187 1800.9H529.987H529.887C306.95 1798.37 188.877 1681.29 183.974 1676.34C178.171 1670.47 176.369 1660.92 179.571 1652.86C353.178 1217.72 374.291 931.083 361.483 767.273C347.775 591.03 292.741 515.974 292.241 515.284C287.738 509.413 286.637 500.894 289.439 493.757C292.341 486.505 298.545 481.9 305.449 481.9H754.625C764.331 481.9 772.136 490.879 772.136 502.045ZM305.449 502.045C305.449 502.045 536.991 804.801 195.481 1661.26C195.481 1661.26 311.052 1778.34 529.987 1780.75C748.922 1778.34 864.493 1661.26 864.493 1661.26C522.983 804.801 754.625 502.045 754.625 502.045H305.449Z" fill="#1D2435"/>
<path d="M400.981 1765.14C881.478 502.9 398.584 485.757 370.219 690.32C347.947 568.25 306 502.9 306 502.9H754.338C754.338 502.9 523.128 805.487 864 1661.48C864 1661.48 748.645 1778.48 530.119 1780.9C482.079 1780.32 439.033 1774.23 400.981 1765.14V1765.14Z" fill="#1D2435"/>
<path d="M530 544.8C375.7 544.8 254.8 499.2 254.8 441C254.8 414.5 278.4 390.6 322.9 371.8C324 371.3 325.2 371.1 326.3 371.1C329.4 371.1 332.5 372.8 334 375.7C336.1 379.7 334.9 384.7 331.1 387.1C325.5 390.8 322.1 394.6 322.1 397.3C322.1 412.1 393.5 439.8 530 439.8C666.4 439.8 737.8 412.1 737.8 397.3C737.8 394.6 734.5 390.8 728.8 387.1C725.1 384.7 723.8 379.7 725.9 375.7C727.5 372.8 730.5 371.1 733.6 371.1C734.733 371.1 735.866 371.333 737 371.8C781.6 390.6 805.1 414.5 805.1 441C805.1 499.2 684.2 544.8 530 544.8V544.8Z" fill="#FEFEFE"/>
<path fill-rule="evenodd" clip-rule="evenodd" d="M740.4 363.7C801.1 389.4 813.8 419.9 813.8 441C813.8 514.1 667.6 553.5 530 553.5C392.3 553.5 246.1 514.1 246.1 441C246.1 419.9 258.8 389.4 319.5 363.7C321.7 362.8 324 362.3 326.3 362.3C332.6 362.3 338.6 365.8 341.7 371.6C346 379.6 343.4 389.5 335.8 394.4C334 395.6 332.8 396.6 332 397.4C336.8 401.8 352.5 410.7 390 418.6C428.4 426.7 478.1 431.1 530 431.1C581.8 431.1 631.5 426.7 670 418.6C707.4 410.7 723.1 401.8 727.9 397.4C727.1 396.6 725.9 395.6 724.1 394.4C716.5 389.5 713.9 379.6 718.2 371.6C721.3 365.8 727.3 362.3 733.6 362.3C735.9 362.3 738.2 362.8 740.4 363.7V363.7ZM746.6 397.3C746.6 425.6 649.6 448.6 530 448.6C410.3 448.6 313.4 425.6 313.4 397.3C313.4 391.2 317.9 385.3 326.3 379.8C287.2 396.4 263.5 417.7 263.5 441C263.5 493.5 382.8 536 530 536C677.1 536 796.4 493.5 796.4 441C796.4 417.7 772.7 396.4 733.6 379.8C742 385.3 746.6 391.2 746.6 397.3Z" fill="#1D2435"/>
<path d="M796.4 441C796.4 493.5 677.1 536 530 536C417.2 536 320.9 511 282 475.8C562.3 579.1 809.4 457.9 725.6 419.3C739 412.6 746.6 405.2 746.6 397.3C746.6 391.2 742 385.3 733.6 379.8C772.7 396.4 796.4 417.7 796.4 441Z" fill="#1D2435"/>
<path d="M530 466.7C398.1 466.7 298.7 428.8 298.7 378.6C298.7 355.8 318.6 335.3 356.4 319.4C357.5 318.9 358.7 318.7 359.8 318.7C363 318.7 366 320.4 367.5 323.3C369.7 327.3 368.4 332.3 364.6 334.7C359.5 338 357.8 340.7 357.8 342C357.8 353.6 418.5 376.1 530 376.1C641.4 376.1 702.2 353.6 702.2 342C702.2 340.7 700.4 338 695.3 334.7C691.5 332.3 690.2 327.3 692.4 323.3C693.9 320.4 696.9 318.7 700.1 318.7C701.233 318.7 702.367 318.933 703.5 319.4C741.3 335.4 761.2 355.8 761.2 378.6C761.2 428.8 661.8 466.7 530 466.7V466.7Z" fill="#FEFEFE"/>
<path fill-rule="evenodd" clip-rule="evenodd" d="M706.9 311.3C759 333.4 770 360.1 770 378.6C770 442.1 649.2 475.4 530 475.4C410.7 475.4 289.9 442.1 289.9 378.6C289.9 360.1 300.9 333.4 353 311.3C355.2 310.4 357.6 310 359.8 310C366.1 310 372.1 313.4 375.3 319.2C379.5 327.2 376.9 337.1 369.4 342.1L369.2 342.2C384.1 352.2 439 367.4 530 367.4C620.9 367.4 675.9 352.2 690.7 342.2L690.5 342.1C683 337.1 680.4 327.2 684.7 319.2C687.8 313.4 693.8 310 700.1 310C702.4 310 704.7 310.4 706.9 311.3ZM710.9 342C710.9 365.7 629.9 384.9 530 384.9C430 384.9 349 365.7 349 342C349 336.9 352.8 332 359.8 327.4C327.1 341.2 307.4 359.1 307.4 378.6C307.4 422.4 407 457.9 530 457.9C652.9 457.9 752.5 422.4 752.5 378.6C752.5 359.1 732.8 341.2 700.1 327.4C707.1 332 710.9 336.9 710.9 342V342Z" fill="#1D2435"/>
<path d="M752.5 378.6C752.5 422.4 652.9 457.9 530 457.9C435.8 457.9 355.3 437 322.8 407.6C557 493.9 763.4 392.7 693.4 360.4C704.6 354.9 710.9 348.6 710.9 342C710.9 336.9 707.1 332 700.1 327.4C732.8 341.2 752.5 359.1 752.5 378.6V378.6Z" fill="#1D2435"/>
<path d="M530 2010.4C237.7 2010.4 8.7002 1926.3 8.7002 1818.9C8.7002 1771.4 52.3002 1727.9 134.8 1693.1C135.9 1692.6 137 1692.4 138.2 1692.4C141.3 1692.4 144.3 1694.1 145.9 1697C148 1701 146.7 1706 142.9 1708.4C133.4 1714.7 122 1724.3 122 1734.8C122 1777.3 289.5 1824.7 530 1824.7C770.4 1824.7 937.9 1777.3 937.9 1734.8C937.9 1724.3 926.5 1714.7 917 1708.4C913.2 1706 911.9 1701 914 1697C915.6 1694.1 918.6 1692.4 921.8 1692.4C922.9 1692.4 924 1692.6 925.2 1693.1C1007.6 1727.9 1051.2 1771.4 1051.2 1818.9C1051.2 1926.3 822.3 2010.4 530 2010.4Z" fill="#FEFEFE"/>
<path fill-rule="evenodd" clip-rule="evenodd" d="M928.6 1685C1014.5 1721.4 1060 1767.6 1060 1818.9C1060 1875.6 1002.5 1927.4 898.2 1964.6C799.6 1999.7 668.8 2019.1 530 2019.1C391.1 2019.1 260.3 1999.7 161.7 1964.6C57.4 1927.4 0 1875.6 0 1818.9C0 1767.6 45.4 1721.4 131.4 1685C133.6 1684.1 135.9 1683.7 138.2 1683.7C144.4 1683.7 150.5 1687.1 153.6 1692.9C157.8 1700.9 155.3 1710.8 147.7 1715.8C137.1 1722.7 130.7 1729.8 130.7 1734.8C130.7 1744.1 153.4 1767.2 239.3 1787.5C316.7 1805.8 420 1815.9 530 1815.9C640 1815.9 743.2 1805.8 820.6 1787.5C906.5 1767.2 929.2 1744.1 929.2 1734.8C929.2 1729.8 922.8 1722.7 912.2 1715.8C904.6 1710.8 902.1 1700.9 906.3 1692.9C909.5 1687.1 915.5 1683.7 921.8 1683.7C924 1683.7 926.3 1684.1 928.6 1685V1685ZM946.7 1734.8C946.7 1789.2 760.1 1833.4 530 1833.4C299.8 1833.4 113.3 1789.2 113.3 1734.8C113.3 1723 122.1 1711.6 138.2 1701.1C62.9 1732.9 17.4 1774 17.4 1818.9C17.4 1919.8 246.9 2001.6 530 2001.6C813 2001.6 1042.5 1919.8 1042.5 1818.9C1042.5 1774 997 1732.9 921.8 1701.1C937.9 1711.6 946.7 1723 946.7 1734.8V1734.8Z" fill="#1D2435"/>
<path d="M1042.5 1818.9C1042.5 1919.8 813 2001.6 530 2001.6C313.1 2001.6 127.8 1953.6 52.9004 1885.7C592.2 2084.5 1067.6 1851.4 906.4 1777.1C932.2 1764.3 946.7 1749.9 946.7 1734.8C946.7 1723 937.9 1711.6 921.8 1701.1C997 1732.9 1042.5 1774 1042.5 1818.9V1818.9Z" fill="#1D2435"/>
<path d="M530 1860.1C285 1860.1 93.0996 1789.2 93.0996 1698.7C93.0996 1660.6 126.4 1625.3 189.4 1596.6C190.5 1596.1 192 1595.8 193.3 1595.8C196.5 1595.8 199.6 1597.6 201.1 1600.5C203.7 1605.4 201.1 1609.4 198.3 1613.5C196.2 1616.6 190.6 1624.8 190.6 1628.5C190.6 1641.6 215.6 1661.6 285.8 1678.2C350.9 1693.6 437.6 1702.1 530 1702.1C622.3 1702.1 709 1693.6 774.1 1678.2C844.3 1661.6 869.3 1641.6 869.3 1628.5C869.3 1620.3 860.2 1612.7 852.5 1607.7C848.7 1605.2 847.4 1600.2 849.5 1596.2C851.1 1593.3 854.1 1591.6 857.3 1591.6C858.433 1591.6 859.566 1591.83 860.7 1592.3C930.1 1621.7 966.8 1658.5 966.8 1698.7C966.8 1789.2 774.9 1860.1 530 1860.1V1860.1Z" fill="#FEFEFE"/>
<path fill-rule="evenodd" clip-rule="evenodd" d="M864.1 1584.3C937 1615.1 975.6 1654.7 975.6 1698.7C975.6 1747.4 926.9 1791.6 838.6 1823.1C755.9 1852.6 646.3 1868.8 530 1868.8C413.6 1868.8 304 1852.6 221.3 1823.1C133 1791.6 84.2998 1747.4 84.2998 1698.7C84.2998 1656.9 119.4 1618.8 185.7 1588.7C188.2 1587.6 190.7 1587 193.3 1587C199.8 1587 205.8 1590.7 208.8 1596.4C213.9 1606 208.6 1613.8 205.5 1618.4C204.1 1620.4 200.2 1626.2 199.4 1628.9C200.3 1634.8 217.7 1653.1 287.8 1669.7C352.3 1685 438.3 1693.4 530 1693.4C621.6 1693.4 707.6 1685 772.1 1669.7C844.3 1652.6 860.6 1633.7 860.6 1628.5C860.6 1626.6 857.9 1621.6 847.7 1615C840.1 1610 837.6 1600.1 841.8 1592.1C845 1586.3 851 1582.9 857.3 1582.9C859.5 1582.9 861.8 1583.3 864.1 1584.3V1584.3ZM878.1 1628.5C878.1 1674 722.2 1710.8 530 1710.8C337.7 1710.8 181.9 1674 181.9 1628.5C181.9 1619 194.9 1604.5 193.3 1604.5L193 1604.6C135.9 1630.5 101.8 1663.2 101.8 1698.7C101.8 1783 293.5 1851.4 530 1851.4C766.4 1851.4 958.1 1783 958.1 1698.7C958.1 1661.2 920.1 1626.9 857.3 1600.3C870.7 1609.1 878.1 1618.6 878.1 1628.5V1628.5Z" fill="#1D2435"/>
<path d="M958.1 1698.7C958.1 1783 766.4 1851.4 530 1851.4C348.8 1851.4 194 1811.2 131.5 1754.5C582 1920.6 979.1 1725.9 844.4 1663.8C866 1653.1 878.1 1641.1 878.1 1628.5C878.1 1618.6 870.7 1609.1 857.3 1600.3C920.1 1626.9 958.1 1661.2 958.1 1698.7Z" fill="#1D2435"/>
<path d="M295.3 223.5C292.6 223.5 290 222.2 288.4 220C273.1 199.8 270.5 178.1 280.8 157.2C306.9 104.9 407.7 71.1001 537.7 71.1001C667.6 71.1001 768.5 104.9 794.5 157.2C804.9 178.1 802.3 199.8 787 220C785.3 222.2 782.7 223.5 780 223.5H295.3Z" fill="#FEFEFE"/>
<path fill-rule="evenodd" clip-rule="evenodd" d="M537.7 79.8C727.7 79.8 828.1 151.2 780 214.8H295.3C247.3 151.2 347.6 79.8 537.7 79.8V79.8ZM537.7 62.3C404.4 62.3 300.5 98 273 153.3C261.2 177 264.2 202.6 281.4 225.3C284.7 229.7 289.9 232.2 295.3 232.2H780C785.5 232.2 790.6 229.7 793.9 225.3C811.1 202.6 814.1 177 802.3 153.3C774.8 98 670.9 62.3 537.7 62.3V62.3Z" fill="#1D2435"/>
<path d="M780 214.8H295.3C276.4 189.7 280.6 163.5 304.1 140.8C344.5 151 394.6 157 449 157C561 157 655.1 131.5 682.2 96.8C774.3 121.8 813.7 170.2 780 214.8V214.8Z" fill="#1D2435"/>
<path d="M530 388.5C332.5 388.5 171.8 297.2 171.8 184.9V17.4C171.8 12.6 175.7 8.69995 180.5 8.69995H309.9C314.8 8.69995 318.7 12.6 318.7 17.4V156.6H450.4V17.4C450.4 12.6 454.3 8.69995 459.1 8.69995H603.4C608.2 8.69995 612.1 12.6 612.1 17.4V156.6H743.8V17.4C743.8 12.6 747.7 8.69995 752.5 8.69995H879.4C884.2 8.69995 888.1 12.6 888.1 17.4V184.9C888.1 297.2 727.5 388.5 530 388.5V388.5Z" fill="#FEFEFE"/>
<path fill-rule="evenodd" clip-rule="evenodd" d="M896.9 17.4V184.9C896.9 243.6 857.3 297.9 785.6 338C717 376.2 626.2 397.3 530 397.3C433.7 397.3 342.9 376.2 274.4 338C202.6 297.9 163.1 243.6 163.1 184.9V17.4C163.1 7.79999 170.9 0 180.5 0H309.9C319.6 0 327.4 7.79999 327.4 17.4V147.9H441.6V17.4C441.6 7.79999 449.4 0 459.1 0H603.4C613 0 620.8 7.79999 620.8 17.4V147.9H735V17.4C735 7.79999 742.9 0 752.5 0H879.4C889 0 896.9 7.79999 896.9 17.4ZM752.5 17.4V165.4H603.4V17.4H459.1V165.4H309.9V17.4H180.5V184.9C180.5 292.6 337 379.8 530 379.8C722.9 379.8 879.4 292.6 879.4 184.9V17.4H752.5Z" fill="#1D2435"/>
<path d="M226.9 17.3999H309.9V165.4H226.9V17.3999Z" fill="#1D2435"/>
<path d="M520.3 17.3999H603.4V165.4H520.3V17.3999Z" fill="#1D2435"/>
<path d="M879.4 17.3999V184.9C879.4 292.6 722.9 379.8 530 379.8C418 379.8 318.4 350.4 254.5 304.8C309.7 325.1 375.8 337 446.9 337C639.9 337 796.4 249.7 796.4 142.1V17.3999H879.4Z" fill="#1D2435"/>
</svg>
