<svg width="259" height="319" viewBox="0 0 259 319" fill="none" xmlns="http://www.w3.org/2000/svg">
<path d="M52.7765 44.8766C55.2983 49.2446 60.8672 50.7367 65.2239 48.2214C69.5918 45.6996 71.084 40.1307 68.5622 35.7628C66.0469 31.4061 60.4714 29.9026 56.1035 32.4245C51.7468 34.9398 50.2612 40.52 52.7765 44.8766Z" fill="#1D2435"/>
<path d="M73.9909 48.38C76.0731 47.1779 76.7905 44.5006 75.5884 42.4184C74.3862 40.3363 71.7089 39.6189 69.6267 40.821L56.8624 48.1905C54.7803 49.3926 54.0629 52.07 55.265 54.1521C56.4671 56.2342 59.1445 56.9516 61.2266 55.7495L73.9909 48.38Z" fill="#FEFEFE"/>
<path fill-rule="evenodd" clip-rule="evenodd" d="M54.2356 54.7468C55.7643 57.3948 59.1735 58.3082 61.8215 56.7795L74.5858 49.41C77.2337 47.8812 78.1472 44.472 76.6184 41.8241C75.0896 39.1762 71.6805 38.2627 69.0325 39.7915L56.2682 47.161C53.6203 48.6897 52.7068 52.0989 54.2356 54.7468ZM70.2216 41.8509C71.7266 40.982 73.6835 41.4968 74.5589 43.0131C75.4278 44.5182 74.9018 46.4816 73.3967 47.3505L60.6324 54.72C59.1161 55.5954 57.164 55.0628 56.2951 53.5578C55.4196 52.0415 55.9409 50.0959 57.4572 49.2204L70.2216 41.8509Z" fill="#1D2435"/>
<path d="M56.2953 53.5577C57.1642 55.0627 59.1163 55.5954 60.6326 54.7199L66.0755 51.5774C64.5592 52.4529 62.6071 51.9202 61.7382 50.4152C60.8628 48.8989 61.3841 46.9533 62.9004 46.0779L57.4574 49.2204C55.9411 50.0958 55.4198 52.0414 56.2953 53.5577Z" fill="#1D2435"/>
<path d="M104.938 57.6861C105.311 57.4705 105.545 57.0643 105.536 56.6316C105.44 52.1005 103.232 48.3811 99.2936 46.1588C91.714 41.8895 79.3122 43.6935 66.91 50.8539C54.4965 58.0209 46.7333 67.8591 46.6521 76.5514C46.6074 81.0734 48.7133 84.8516 52.6005 87.1941C52.971 87.4177 53.4281 87.4254 53.8015 87.2098L104.938 57.6861Z" fill="#FEFEFE"/>
<path fill-rule="evenodd" clip-rule="evenodd" d="M67.5043 51.8838C47.4525 63.4606 42.8257 79.9072 53.2067 86.1801L104.343 56.6564C104.101 44.5297 87.5561 40.3069 67.5043 51.8838ZM66.3152 49.8243C79.0796 42.4548 91.9384 40.6585 99.8755 45.1287C104.189 47.5568 106.624 51.6431 106.729 56.6069C106.746 57.4723 106.29 58.2782 105.532 58.7159L54.3958 88.2396C53.6489 88.6708 52.7234 88.662 51.9824 88.2147C47.736 85.6421 45.4145 81.4904 45.4686 76.5405C45.5545 67.4382 53.5396 57.2003 66.3152 49.8243Z" fill="#1D2435"/>
<path d="M53.2076 86.1802L104.344 56.6565C104.25 51.8677 101.62 48.3317 97.2358 46.4874C93.8303 50.4149 89.0489 54.3373 83.3117 57.6496C71.4979 64.4703 59.4262 66.5062 53.669 63.1462C46.0328 72.368 45.9304 81.7815 53.2076 86.1802Z" fill="#1D2435"/>
<path d="M59.6192 33.2613C57.9105 34.2478 57.327 36.4254 58.3135 38.1341C59.3066 39.8541 61.4841 40.4376 63.1928 39.4511C64.9129 38.458 65.4964 36.2804 64.5033 34.5604C63.5168 32.8517 61.3392 32.2682 59.6192 33.2613Z" fill="#FEFEFE"/>
<path d="M186.996 259.033C210.063 245.414 216.213 227.816 216.468 227.081C216.631 226.579 216.463 226.027 216.035 225.731C174.225 196.067 153.56 165.239 143.582 144.611C132.813 122.327 131.882 106.917 131.874 106.771C131.849 106.363 131.616 105.985 131.247 105.79C130.889 105.589 130.445 105.604 130.095 105.807L82.7263 133.155C82.3755 133.357 82.1406 133.734 82.1359 134.144C82.1199 134.561 82.3242 134.941 82.6721 135.178C82.794 135.258 95.7493 143.847 109.678 164.366C122.518 183.312 138.845 216.584 143.614 267.544C143.656 268.062 144.051 268.484 144.566 268.593C145.33 268.74 163.645 272.213 186.974 259.046L186.985 259.04L186.996 259.033Z" fill="#FEFEFE"/>
<path fill-rule="evenodd" clip-rule="evenodd" d="M81.2626 135.373C81.4652 135.724 81.7517 136.011 82.0734 136.203C83.0196 136.849 95.4499 145.469 108.779 165.158C121.511 183.97 137.685 217.028 142.439 267.649C142.531 268.698 143.296 269.553 144.333 269.754C145.121 269.918 163.845 273.471 187.558 260.082L187.603 260.056C211.044 246.221 217.339 228.223 217.592 227.458C217.936 226.46 217.578 225.369 216.716 224.765C175.254 195.338 154.711 164.801 144.786 144.369C134.044 122.236 133.068 106.852 133.059 106.706C133.022 105.883 132.543 105.133 131.817 104.737C131.091 104.342 130.214 104.365 129.501 104.777L82.1331 132.125C80.9902 132.785 80.6028 134.231 81.2626 135.373ZM130.69 106.836C130.69 106.836 134.017 168.994 215.346 226.703C215.346 226.703 209.345 244.456 186.392 258.01C163.177 271.111 144.802 267.431 144.802 267.431C135.489 168.144 83.3221 134.184 83.3221 134.184L130.69 106.836ZM83.3334 134.178L83.3221 134.184L83.3334 134.178ZM84.516 136.226L84.5047 136.233L84.516 136.226Z" fill="#1D2435"/>
<path d="M199.19 248.689C58.7333 142.556 121.396 110.105 135.209 127.13C131.102 114.58 130.689 106.836 130.689 106.836L83.3211 134.185C83.3211 134.185 135.487 168.145 144.801 267.432C144.801 267.432 163.176 271.112 186.391 258.01C191.445 255.031 195.674 251.85 199.19 248.689Z" fill="#1D2435"/>
<path d="M99.1003 106.818C105.267 103.258 110.556 99.2989 113.611 95.9661C113.853 95.7057 113.96 95.3422 113.921 94.9874C112.717 86.7352 108.842 59.0383 108.992 48.9487C109.014 46.6877 108.622 44.5452 107.785 42.5992C107.613 42.1705 107.198 41.8968 106.746 41.8713C106.511 41.8561 106.293 41.9219 106.1 42.033C105.908 42.1441 105.748 42.3117 105.637 42.5116C103.571 46.511 100.427 49.8199 96.5227 52.0738C92.9469 54.1383 88.8967 55.2244 84.7752 55.2201C84.5645 55.221 84.3573 55.2803 84.1763 55.3848C84.0065 55.4828 83.8516 55.6326 83.7454 55.8146C81.6885 59.3861 78.7228 62.3506 75.147 64.4151C71.0959 66.754 66.4833 67.8329 61.8336 67.5149C61.592 67.4884 61.3557 67.5494 61.152 67.667C60.9596 67.7781 60.7886 67.9522 60.6907 68.1747C58.63 72.3669 55.4007 75.8156 51.3496 78.1545C48.0907 80.0361 44.5476 81.0859 40.8062 81.2695C40.6133 81.2752 40.4353 81.3327 40.2769 81.4242C40.0506 81.5548 39.87 81.7647 39.7673 82.005C39.5942 82.4369 39.6758 82.9179 39.995 83.2617C41.135 84.5046 42.4931 85.5763 44.0383 86.4495C52.8509 91.3647 74.906 108.581 81.4556 113.731C81.7321 113.949 82.1004 114.038 82.4468 113.959C86.8605 112.979 92.9331 110.379 99.1003 106.818Z" fill="#FEFEFE"/>
<path fill-rule="evenodd" clip-rule="evenodd" d="M59.6174 67.648C57.6725 71.6226 54.6029 74.9036 50.7554 77.1249C47.6775 78.9019 44.3303 79.899 40.7996 80.0816C40.4431 80.0913 40.074 80.1837 39.7506 80.3553L39.7393 80.3619L39.6827 80.3945L39.6714 80.4011C38.5398 81.0544 38.1589 82.5115 38.8123 83.6431C38.9212 83.8317 39.0483 83.9997 39.1938 84.147C40.4022 85.4561 41.8334 86.5761 43.4565 87.4797C52.1912 92.3645 74.1845 109.526 80.7162 114.671C81.2757 115.118 81.9992 115.273 82.6987 115.126C87.2339 114.122 93.4261 111.467 99.6951 107.848C105.964 104.229 111.359 100.193 114.496 96.7677C114.974 96.2356 115.194 95.5199 115.094 94.8235C113.903 86.5939 110.038 58.9666 110.175 48.9597C110.205 46.5285 109.768 44.2307 108.887 42.1293C108.52 41.2849 107.707 40.7132 106.787 40.6865C106.323 40.6675 105.891 40.7813 105.506 41.0034C105.121 41.2255 104.802 41.5608 104.586 41.9718C102.631 45.7714 99.6288 48.9078 95.9285 51.0442C92.5337 53.0042 88.6794 54.0375 84.7799 54.0257C84.3472 54.0341 83.9442 54.1461 83.5821 54.3552C83.2313 54.5577 82.9214 54.8573 82.7091 55.2213C80.7696 58.6043 77.9475 61.4255 74.5528 63.3855C70.7054 65.6068 66.3291 66.6246 61.9146 66.3218C61.4266 66.2867 60.9652 66.4022 60.5578 66.6374C60.1618 66.866 59.831 67.2079 59.6174 67.648ZM75.7418 65.445C79.6345 63.1975 82.6819 60.0349 84.7711 56.4147C88.9623 56.409 93.2249 55.3511 97.1176 53.1037C101.361 50.6537 104.603 47.1224 106.695 43.0629C107.432 44.81 107.825 46.7709 107.791 48.9331C107.651 58.987 111.391 85.7964 112.737 95.1581C109.886 98.268 104.752 102.182 98.5061 105.789C92.2597 109.395 86.3033 111.883 82.1843 112.798C74.75 106.951 53.409 90.3186 44.6255 85.4016C43.1356 84.572 41.8994 83.5807 40.8718 82.454C44.6423 82.2687 48.4366 81.2097 51.9445 79.1844C56.3464 76.6429 59.6718 72.9426 61.7469 68.6969C66.4727 69.0162 71.3399 67.9864 75.7418 65.445ZM40.8718 82.454L40.8604 82.4606L40.8718 82.454Z" fill="#1D2435"/>
<path d="M109.802 125.354C124.116 117.089 136.544 104.407 132.553 97.4927C130.913 94.6524 126.929 93.5276 121.031 94.2621C120.863 94.2839 120.714 94.3397 120.578 94.4181C120.216 94.6271 119.971 95.0399 119.986 95.4839C120.012 96.1029 120.492 96.595 121.115 96.6279C122.019 96.679 122.466 96.9039 122.577 97.0963C123.433 98.5787 117.399 105.925 103.288 114.072C89.166 122.225 79.7873 123.777 78.9315 122.295C78.8204 122.103 78.849 121.603 79.2684 120.788C79.5398 120.239 79.3537 119.577 78.8304 119.245C78.4533 119.01 77.985 119.009 77.6115 119.225C77.4757 119.303 77.3552 119.408 77.2499 119.539C73.6649 124.28 72.6471 128.292 74.287 131.132C78.2788 138.046 95.4759 133.625 109.802 125.354Z" fill="#FEFEFE"/>
<path fill-rule="evenodd" clip-rule="evenodd" d="M76.3054 118.817C71.3928 125.335 71.9313 129.43 73.2576 131.727C74.7341 134.284 78.4947 136.956 88.0604 135.205C94.7194 133.986 102.657 130.852 110.397 126.383C118.125 121.921 124.808 116.614 129.194 111.457C135.493 104.048 135.059 99.4556 133.583 96.8982C132.256 94.6011 128.991 92.0808 120.879 93.0829C120.56 93.1313 120.255 93.2315 119.984 93.3883C119.248 93.813 118.771 94.6319 118.807 95.5313C118.851 96.758 119.818 97.7536 121.046 97.8146C121.152 97.8239 121.242 97.8321 121.316 97.8393C120.432 100.07 114.621 106.156 102.694 113.042C90.7558 119.934 82.58 121.924 80.2057 121.575C80.2368 121.506 80.2747 121.424 80.3197 121.328C80.8805 120.235 80.5131 118.893 79.4616 118.247C78.701 117.766 77.7529 117.77 77.0173 118.195C76.7458 118.352 76.5068 118.565 76.3054 118.817ZM77.9021 122.89C79.6268 125.877 91.2545 122.392 103.883 115.101C116.5 107.817 125.332 99.4892 123.607 96.5018C123.235 95.8568 122.389 95.5153 121.173 95.4478C126.309 94.8058 130.099 95.6204 131.523 98.0872C134.718 103.621 124.722 115.367 109.208 124.324C93.6822 133.287 78.5118 136.071 75.3171 130.538C73.8928 128.071 75.0822 124.382 78.2064 120.255C77.6569 121.341 77.5297 122.245 77.9021 122.89Z" fill="#1D2435"/>
<path d="M75.3165 130.538C78.5112 136.071 93.6816 133.287 109.207 124.324C121.1 117.457 129.739 108.954 131.693 102.877C108.416 130.846 74.9616 133.112 81.4474 123.935C79.6278 124.05 78.3849 123.727 77.9015 122.89C77.5291 122.245 77.6563 121.341 78.2058 120.255C75.0816 124.382 73.8922 128.071 75.3165 130.538Z" fill="#1D2435"/>
<path d="M105.045 117.116C116.927 110.256 127.654 99.6717 124.126 93.5611C122.715 91.1169 119.309 90.1564 114.3 90.7848C114.142 90.8061 113.994 90.8559 113.859 90.9343C113.485 91.1499 113.246 91.5448 113.256 92.0067C113.275 92.6143 113.773 93.1113 114.384 93.1507C115.141 93.1814 115.416 93.3698 115.455 93.4377C116.056 94.4787 111.323 100.471 99.4069 107.35C87.4913 114.23 79.9356 115.333 79.3345 114.292C79.2953 114.224 79.2695 113.892 79.6102 113.227C79.8929 112.672 79.7003 111.998 79.1835 111.678C78.7999 111.432 78.3267 111.449 77.9533 111.664C77.8251 111.738 77.7083 111.841 77.603 111.972C74.5545 115.995 73.6946 119.419 75.1057 121.863C78.6337 127.974 93.1634 123.976 105.045 117.116Z" fill="#FEFEFE"/>
<path fill-rule="evenodd" clip-rule="evenodd" d="M112.07 92.0428C112.108 93.1529 112.906 94.065 113.956 94.2889C112.699 96.3722 107.832 101.113 98.8133 106.32C89.7832 111.534 83.2437 113.378 80.8113 113.425C81.1422 112.404 80.7514 111.256 79.8087 110.669C79.0481 110.188 78.1065 110.203 77.3597 110.635C77.0994 110.785 76.854 110.987 76.659 111.25C72.4183 116.867 72.914 120.444 74.0769 122.458C78.0295 129.304 92.9441 125.476 105.641 118.146C118.326 110.822 129.098 99.8194 125.146 92.9733C123.983 90.959 121.133 88.7416 114.16 89.5992C113.834 89.6363 113.537 89.7479 113.265 89.9047C112.518 90.3359 112.045 91.137 112.07 92.0428ZM78.3057 114.886C79.743 117.376 89.4559 114.469 100.002 108.38C110.537 102.297 117.923 95.3328 116.486 92.8433C116.172 92.3001 115.464 92.0148 114.454 91.9642C118.742 91.42 121.915 92.1076 123.097 94.1558C125.769 98.784 117.419 108.599 104.451 116.086C91.4835 123.573 78.8085 125.897 76.1364 121.269C74.9539 119.221 75.945 116.129 78.5487 112.694C78.0876 113.594 77.9921 114.343 78.3057 114.886Z" fill="#1D2435"/>
<path d="M76.1357 121.269C78.8078 125.897 91.4828 123.573 104.451 116.086C114.386 110.35 121.606 103.255 123.238 98.1631C103.788 121.523 75.8439 123.429 81.2667 115.756C79.7388 115.854 78.7035 115.577 78.305 114.886C77.9914 114.343 78.087 113.594 78.5481 112.694C75.9443 116.129 74.9532 119.22 76.1357 121.269Z" fill="#1D2435"/>
<path d="M202.038 285.112C232.93 267.276 251.987 244.384 245.415 233C242.494 227.942 235.205 225.98 224.328 227.341C224.169 227.362 224.022 227.412 223.886 227.49C223.513 227.706 223.262 228.107 223.283 228.563C223.309 229.182 223.789 229.674 224.412 229.707C225.768 229.783 227.514 230.088 228.121 231.141C230.682 235.577 215.907 250.7 190.605 265.309C165.303 279.917 144.806 285.157 142.245 280.721C141.637 279.669 142.246 278.005 142.858 276.792C143.141 276.236 142.955 275.574 142.431 275.243C142.048 274.996 141.575 275.013 141.212 275.222C141.077 275.3 140.956 275.405 140.851 275.536C134.245 284.269 132.289 291.569 135.209 296.628C141.781 308.011 171.134 302.954 202.038 285.112Z" fill="#FEFEFE"/>
<path fill-rule="evenodd" clip-rule="evenodd" d="M139.906 274.815C132.986 283.97 131.004 291.723 134.18 297.222C137.688 303.299 146.993 305.304 160.381 302.856C172.946 300.55 187.956 294.615 202.633 286.141C217.298 277.674 229.944 267.642 238.234 257.907C247.037 247.544 249.953 238.483 246.445 232.406C243.269 226.906 235.565 224.746 224.176 226.162C223.85 226.199 223.552 226.31 223.292 226.461C222.545 226.892 222.061 227.699 222.097 228.599C222.142 229.825 223.116 230.832 224.343 230.893C226.069 230.983 226.902 231.407 227.092 231.735C227.497 232.437 226.857 236.111 218.895 243.619C211.847 250.253 201.598 257.589 190.011 264.279C178.423 270.969 166.934 276.184 157.665 278.971C147.193 282.105 143.68 280.829 143.275 280.127C143.086 279.799 143.146 278.859 143.921 277.325C144.481 276.232 144.107 274.879 143.056 274.233C142.295 273.752 141.354 273.768 140.618 274.192C140.347 274.349 140.101 274.551 139.906 274.815ZM141.216 281.316C144.534 287.064 166.916 280.359 191.2 266.338C215.472 252.325 232.47 236.295 229.151 230.546C228.433 229.301 226.819 228.649 224.481 228.52C234.347 227.29 241.648 228.854 244.385 233.595C250.533 244.243 231.313 266.852 201.45 284.093C171.576 301.341 142.387 306.681 136.239 296.033C133.502 291.292 135.797 284.188 141.807 276.252C140.75 278.341 140.497 280.071 141.216 281.316Z" fill="#1D2435"/>
<path d="M136.239 296.033C142.387 306.681 171.576 301.341 201.45 284.093C224.331 270.883 240.94 254.519 244.71 242.807C199.919 296.625 135.57 300.991 148.051 283.329C144.557 283.551 142.143 282.923 141.215 281.316C140.497 280.071 140.75 278.341 141.807 276.252C135.797 284.188 133.501 291.292 136.239 296.033Z" fill="#1D2435"/>
<path d="M192.891 269.269C218.793 254.315 234.743 235.058 229.196 225.45C226.844 221.377 221.133 219.665 212.694 220.493C212.519 220.504 212.33 220.568 212.183 220.653C211.798 220.875 211.56 221.299 211.575 221.743C211.603 222.496 212.188 222.777 212.737 223.049C213.11 223.226 214.202 223.757 214.404 224.108C216.253 227.31 205.248 239.609 183.137 252.375C161.014 265.147 144.861 268.528 143.012 265.326C142.646 264.692 142.826 263.593 143.528 262.222C143.8 261.673 143.614 261.011 143.09 260.679C142.713 260.444 142.245 260.443 141.871 260.659C141.736 260.737 141.619 260.84 141.521 260.967C135.94 268.338 134.314 274.512 136.79 278.801C142.337 288.408 166.977 284.23 192.891 269.269Z" fill="#FEFEFE"/>
<path fill-rule="evenodd" clip-rule="evenodd" d="M140.566 260.251C133.137 270.093 133.854 276.091 135.761 279.395C138.786 284.635 146.7 286.372 158.055 284.298C168.605 282.371 181.179 277.389 193.48 270.288C205.769 263.193 216.37 254.794 223.314 246.62C230.788 237.824 233.24 230.102 230.215 224.862C228.405 221.728 223.868 218.207 212.583 219.306C212.222 219.343 211.887 219.451 211.578 219.629C210.82 220.067 210.355 220.909 210.39 221.779C210.443 223.257 211.595 223.814 212.222 224.116C212.482 224.253 213.127 224.559 213.403 224.777C213.545 225.389 212.784 228.303 206.601 234.136C200.739 239.663 192.196 245.772 182.543 251.345C172.879 256.924 163.317 261.268 155.611 263.575C147.038 266.156 144.271 265.128 144.043 264.732C143.99 264.641 143.938 264.053 144.58 262.762C145.141 261.668 144.774 260.326 143.733 259.675C142.961 259.2 142.013 259.204 141.278 259.629C141.006 259.786 140.767 259.999 140.566 260.251ZM141.983 265.921C144.753 270.719 163.443 265.118 183.732 253.404C204.01 241.697 218.205 228.311 215.435 223.513C214.86 222.518 212.609 221.78 212.778 221.682L212.819 221.674C220.413 220.926 226.005 222.299 228.167 226.045C233.302 234.939 217.238 253.84 192.297 268.239C167.346 282.645 142.956 287.101 137.821 278.206C135.541 274.257 137.456 268.323 142.467 261.688C141.588 263.433 141.382 264.88 141.983 265.921Z" fill="#1D2435"/>
<path d="M137.82 278.206C142.955 287.101 167.345 282.645 192.297 268.24C211.409 257.205 225.288 243.534 228.436 233.75C191.022 278.707 137.255 282.35 147.692 267.603C144.764 267.785 142.754 267.256 141.983 265.921C141.382 264.88 141.588 263.433 142.466 261.688C137.455 268.323 135.54 274.257 137.82 278.206Z" fill="#1D2435"/>
<path d="M42.8405 84.2442C43.3983 84.6615 43.9835 85.0478 44.6252 85.4015C55.3405 91.391 82.184 112.798 82.184 112.798L93.5659 109.802C93.5659 109.802 62.0949 91.9573 85.0247 66.1053C61.5125 75.8176 61.5219 87.3846 42.8405 84.2442Z" fill="#1D2435"/>
<path d="M205.982 44.8766C203.46 49.2446 197.892 50.7367 193.535 48.2214C189.167 45.6996 187.675 40.1307 190.197 35.7628C192.712 31.4061 198.287 29.9026 202.655 32.4245C207.012 34.9398 208.498 40.52 205.982 44.8766Z" fill="#1D2435"/>
<path d="M184.768 48.38C182.686 47.1779 181.968 44.5006 183.17 42.4184C184.373 40.3363 187.05 39.6189 189.132 40.821L201.896 48.1905C203.979 49.3926 204.696 52.07 203.494 54.1521C202.292 56.2342 199.614 56.9516 197.532 55.7495L184.768 48.38Z" fill="#FEFEFE"/>
<path fill-rule="evenodd" clip-rule="evenodd" d="M204.523 54.7468C202.994 57.3948 199.585 58.3082 196.937 56.7795L184.173 49.41C181.525 47.8812 180.612 44.472 182.14 41.8241C183.669 39.1762 187.078 38.2627 189.726 39.7915L202.491 47.161C205.139 48.6897 206.052 52.0989 204.523 54.7468ZM188.537 41.8509C187.032 40.982 185.075 41.4968 184.2 43.0131C183.331 44.5182 183.857 46.4816 185.362 47.3505L198.126 54.72C199.643 55.5954 201.595 55.0628 202.464 53.5578C203.339 52.0415 202.818 50.0959 201.302 49.2204L188.537 41.8509Z" fill="#1D2435"/>
<path d="M202.464 53.5577C201.595 55.0627 199.643 55.5954 198.126 54.7199L192.683 51.5774C194.2 52.4529 196.152 51.9202 197.021 50.4152C197.896 48.8989 197.375 46.9533 195.858 46.0779L201.301 49.2204C202.818 50.0958 203.339 52.0414 202.464 53.5577Z" fill="#1D2435"/>
<path d="M153.82 57.6861C153.446 57.4705 153.213 57.0643 153.222 56.6316C153.318 52.1005 155.526 48.3811 159.464 46.1588C167.044 41.8895 179.446 43.6935 191.848 50.8539C204.261 58.0209 212.025 67.8591 212.106 76.5514C212.15 81.0734 210.045 84.8516 206.157 87.1941C205.787 87.4177 205.33 87.4254 204.956 87.2098L153.82 57.6861Z" fill="#FEFEFE"/>
<path fill-rule="evenodd" clip-rule="evenodd" d="M191.254 51.8838C211.305 63.4606 215.932 79.9072 205.551 86.1801L154.415 56.6564C154.657 44.5297 171.202 40.3069 191.254 51.8838ZM192.443 49.8243C179.678 42.4548 166.819 40.6585 158.882 45.1287C154.569 47.5568 152.134 51.6431 152.029 56.6069C152.012 57.4723 152.467 58.2782 153.225 58.7159L204.362 88.2396C205.109 88.6708 206.034 88.662 206.775 88.2147C211.022 85.6421 213.343 81.4904 213.289 76.5405C213.203 67.4382 205.218 57.2003 192.443 49.8243Z" fill="#1D2435"/>
<path d="M205.551 86.1802L154.415 56.6565C154.509 51.8677 157.139 48.3317 161.523 46.4874C164.928 50.4149 169.71 54.3373 175.447 57.6496C187.261 64.4703 199.333 66.5062 205.09 63.1462C212.726 72.368 212.828 81.7815 205.551 86.1802Z" fill="#1D2435"/>
<path d="M199.14 33.2613C200.848 34.2478 201.432 36.4254 200.445 38.1341C199.452 39.8541 197.275 40.4376 195.566 39.4511C193.846 38.458 193.262 36.2804 194.255 34.5604C195.242 32.8517 197.42 32.2682 199.14 33.2613Z" fill="#FEFEFE"/>
<path d="M71.7626 259.033C48.6956 245.414 42.5456 227.816 42.2912 227.081C42.1281 226.579 42.2959 226.027 42.7234 225.731C84.5338 196.067 105.199 165.239 115.177 144.611C125.946 122.327 126.876 106.917 126.885 106.771C126.91 106.363 127.143 105.985 127.512 105.79C127.869 105.589 128.313 105.604 128.664 105.807L176.032 133.155C176.383 133.357 176.618 133.734 176.623 134.144C176.639 134.561 176.435 134.941 176.087 135.178C175.965 135.258 163.009 143.847 149.08 164.366C136.241 183.312 119.913 216.584 115.145 267.544C115.102 268.062 114.708 268.484 114.192 268.593C113.428 268.74 95.1135 272.213 71.7852 259.046L71.7739 259.04L71.7626 259.033Z" fill="#FEFEFE"/>
<path fill-rule="evenodd" clip-rule="evenodd" d="M177.496 135.373C177.294 135.724 177.007 136.011 176.685 136.203C175.739 136.849 163.309 145.469 149.98 165.158C137.248 183.97 121.074 217.028 116.32 267.649C116.228 268.698 115.462 269.553 114.426 269.754C113.637 269.918 94.9137 273.471 71.2007 260.082L71.1554 260.056C47.7151 246.221 41.4193 228.223 41.1667 227.458C40.8227 226.46 41.1808 225.369 42.0425 224.765C83.5049 195.338 104.047 164.801 113.973 144.369C124.715 122.236 125.691 106.852 125.699 106.706C125.737 105.883 126.215 105.133 126.942 104.737C127.668 104.342 128.544 104.365 129.257 104.777L176.626 132.125C177.769 132.785 178.156 134.231 177.496 135.373ZM128.068 106.836C128.068 106.836 124.741 168.994 43.4131 226.703C43.4131 226.703 49.4133 244.456 72.3671 258.01C95.5822 271.111 113.956 267.431 113.956 267.431C123.27 168.144 175.437 134.184 175.437 134.184L128.068 106.836ZM175.425 134.178L175.437 134.184L175.425 134.178ZM174.243 136.226L174.254 136.233L174.243 136.226Z" fill="#1D2435"/>
<path d="M59.5678 248.689C200.025 142.556 137.362 110.105 123.549 127.13C127.656 114.58 128.068 106.836 128.068 106.836L175.437 134.185C175.437 134.185 123.27 168.145 113.956 267.432C113.956 267.432 95.5823 271.112 72.3672 258.01C67.3125 255.031 63.0836 251.85 59.5678 248.689Z" fill="#1D2435"/>
<path d="M159.658 106.818C153.491 103.258 148.203 99.2989 145.148 95.9661C144.906 95.7057 144.799 95.3422 144.838 94.9874C146.042 86.7352 149.917 59.0383 149.767 48.9487C149.745 46.6877 150.137 44.5452 150.974 42.5992C151.146 42.1705 151.56 41.8968 152.013 41.8713C152.248 41.8561 152.466 41.9219 152.659 42.033C152.851 42.1441 153.011 42.3117 153.122 42.5116C155.188 46.511 158.332 49.8199 162.236 52.0738C165.812 54.1383 169.862 55.2244 173.984 55.2201C174.194 55.221 174.401 55.2803 174.583 55.3848C174.752 55.4828 174.907 55.6326 175.013 55.8146C177.07 59.3861 180.036 62.3506 183.612 64.4151C187.663 66.754 192.276 67.8329 196.925 67.5149C197.167 67.4884 197.403 67.5494 197.607 67.667C197.799 67.7781 197.97 67.9522 198.068 68.1747C200.129 72.3669 203.358 75.8156 207.409 78.1545C210.668 80.0361 214.211 81.0859 217.953 81.2695C218.145 81.2752 218.323 81.3327 218.482 81.4242C218.708 81.5548 218.889 81.7647 218.991 82.005C219.165 82.4369 219.083 82.9179 218.764 83.2617C217.624 84.5046 216.266 85.5763 214.721 86.4495C205.908 91.3647 183.853 108.581 177.303 113.731C177.027 113.949 176.658 114.038 176.312 113.959C171.898 112.979 165.826 110.379 159.658 106.818Z" fill="#FEFEFE"/>
<path fill-rule="evenodd" clip-rule="evenodd" d="M199.141 67.648C201.086 71.6226 204.156 74.9036 208.003 77.1249C211.081 78.9019 214.428 79.899 217.959 80.0816C218.316 80.0913 218.685 80.1837 219.008 80.3553L219.019 80.3619L219.076 80.3945L219.087 80.4011C220.219 81.0544 220.6 82.5115 219.947 83.6431C219.838 83.8317 219.71 83.9997 219.565 84.147C218.357 85.4561 216.925 86.5761 215.302 87.4797C206.568 92.3645 184.574 109.526 178.043 114.671C177.483 115.118 176.76 115.273 176.06 115.126C171.525 114.122 165.333 111.467 159.064 107.848C152.795 104.229 147.399 100.193 144.262 96.7677C143.785 96.2356 143.565 95.5199 143.665 94.8235C144.856 86.5939 148.721 58.9666 148.584 48.9597C148.554 46.5285 148.991 44.2307 149.872 42.1293C150.239 41.2849 151.052 40.7132 151.972 40.6865C152.436 40.6675 152.868 40.7813 153.253 41.0034C153.638 41.2255 153.957 41.5608 154.172 41.9718C156.128 45.7714 159.13 48.9078 162.83 51.0442C166.225 53.0042 170.079 54.0375 173.979 54.0257C174.412 54.0341 174.815 54.1461 175.177 54.3552C175.528 54.5577 175.837 54.8573 176.05 55.2213C177.989 58.6043 180.811 61.4255 184.206 63.3855C188.053 65.6068 192.43 66.6246 196.844 66.3218C197.332 66.2867 197.794 66.4022 198.201 66.6374C198.597 66.866 198.928 67.2079 199.141 67.648ZM183.017 65.445C179.124 63.1975 176.077 60.0349 173.988 56.4147C169.797 56.409 165.534 55.3511 161.641 53.1037C157.398 50.6537 154.156 47.1224 152.064 43.0629C151.327 44.81 150.934 46.7709 150.968 48.9331C151.108 58.987 147.368 85.7964 146.022 95.1581C148.873 98.268 154.006 102.182 160.253 105.789C166.499 109.395 172.455 111.883 176.574 112.798C184.009 106.951 205.35 90.3186 214.133 85.4016C215.623 84.572 216.859 83.5807 217.887 82.454C214.116 82.2687 210.322 81.2097 206.814 79.1844C202.412 76.6429 199.087 72.9426 197.012 68.6969C192.286 69.0162 187.419 67.9864 183.017 65.445ZM217.887 82.454L217.898 82.4606L217.887 82.454Z" fill="#1D2435"/>
<path d="M148.956 125.354C134.641 117.089 122.213 104.407 126.205 97.4927C127.845 94.6524 131.829 93.5276 137.727 94.2621C137.895 94.2839 138.044 94.3397 138.18 94.4181C138.542 94.6271 138.786 95.0399 138.771 95.4839C138.746 96.1029 138.266 96.595 137.643 96.6279C136.739 96.679 136.292 96.9039 136.181 97.0963C135.325 98.5787 141.359 105.925 155.47 114.072C169.592 122.225 178.97 123.777 179.826 122.295C179.937 122.103 179.909 121.603 179.489 120.788C179.218 120.239 179.404 119.577 179.927 119.245C180.304 119.01 180.773 119.009 181.146 119.225C181.282 119.303 181.403 119.408 181.508 119.539C185.093 124.28 186.111 128.292 184.471 131.132C180.479 138.046 163.282 133.625 148.956 125.354Z" fill="#FEFEFE"/>
<path fill-rule="evenodd" clip-rule="evenodd" d="M182.453 118.817C187.366 125.335 186.827 129.43 185.501 131.727C184.025 134.284 180.264 136.956 170.698 135.205C164.039 133.986 156.102 130.852 148.362 126.383C140.633 121.921 133.95 116.614 129.565 111.457C123.266 104.048 123.7 99.4556 125.176 96.8982C126.502 94.6011 129.768 92.0808 137.88 93.0829C138.199 93.1313 138.503 93.2315 138.775 93.3883C139.511 93.813 139.988 94.6319 139.952 95.5313C139.907 96.758 138.94 97.7536 137.713 97.8146C137.607 97.8239 137.517 97.8321 137.442 97.8393C138.327 100.07 144.138 106.156 156.065 113.042C168.003 119.934 176.179 121.924 178.553 121.575C178.522 121.506 178.484 121.424 178.439 121.328C177.878 120.235 178.246 118.893 179.297 118.247C180.058 117.766 181.006 117.77 181.741 118.195C182.013 118.352 182.252 118.565 182.453 118.817ZM180.857 122.89C179.132 125.877 167.504 122.392 154.876 115.101C142.258 107.817 133.427 99.4892 135.152 96.5018C135.524 95.8568 136.37 95.5153 137.586 95.4478C132.45 94.8058 128.66 95.6204 127.236 98.0872C124.041 103.621 134.037 115.367 149.551 124.324C165.077 133.287 180.247 136.071 183.442 130.538C184.866 128.071 183.677 124.382 180.552 120.255C181.102 121.341 181.229 122.245 180.857 122.89Z" fill="#1D2435"/>
<path d="M183.442 130.538C180.248 136.071 165.077 133.287 149.552 124.324C137.659 117.457 129.019 108.954 127.066 102.877C150.343 130.846 183.797 133.112 177.311 123.935C179.131 124.05 180.374 123.727 180.857 122.89C181.23 122.245 181.102 121.341 180.553 120.255C183.677 124.382 184.867 128.071 183.442 130.538Z" fill="#1D2435"/>
<path d="M153.714 117.116C141.832 110.256 131.105 99.6717 134.633 93.5611C136.044 91.1169 139.45 90.1564 144.458 90.7848C144.617 90.8061 144.764 90.8559 144.9 90.9343C145.274 91.1499 145.513 91.5448 145.503 92.0067C145.484 92.6143 144.986 93.1113 144.375 93.1507C143.618 93.1814 143.343 93.3698 143.304 93.4377C142.703 94.4787 147.436 100.471 159.352 107.35C171.268 114.23 178.823 115.333 179.424 114.292C179.463 114.224 179.489 113.892 179.149 113.227C178.866 112.672 179.058 111.998 179.575 111.678C179.959 111.432 180.432 111.449 180.805 111.664C180.934 111.738 181.051 111.841 181.156 111.972C184.204 115.995 185.064 119.419 183.653 121.863C180.125 127.974 165.595 123.976 153.714 117.116Z" fill="#FEFEFE"/>
<path fill-rule="evenodd" clip-rule="evenodd" d="M146.688 92.0428C146.651 93.1529 145.853 94.065 144.803 94.2889C146.06 96.3722 150.927 101.113 159.945 106.32C168.976 111.534 175.515 113.378 177.948 113.425C177.617 112.404 178.007 111.256 178.95 110.669C179.711 110.188 180.652 110.203 181.399 110.635C181.659 110.785 181.905 110.987 182.1 111.25C186.34 116.867 185.845 120.444 184.682 122.458C180.729 129.304 165.815 125.476 153.118 118.146C140.433 110.822 129.661 99.8194 133.613 92.9733C134.776 90.959 137.626 88.7416 144.599 89.5992C144.924 89.6363 145.222 89.7479 145.494 89.9047C146.241 90.3359 146.714 91.137 146.688 92.0428ZM180.453 114.886C179.016 117.376 169.303 114.469 158.756 108.38C148.221 102.297 140.836 95.3328 142.273 92.8433C142.587 92.3001 143.295 92.0148 144.305 91.9642C140.017 91.42 136.844 92.1076 135.661 94.1558C132.989 98.784 141.339 108.599 154.307 116.086C167.275 123.573 179.95 125.897 182.622 121.269C183.805 119.221 182.814 116.129 180.21 112.694C180.671 113.594 180.767 114.343 180.453 114.886Z" fill="#1D2435"/>
<path d="M182.623 121.269C179.951 125.897 167.276 123.573 154.308 116.086C144.373 110.35 137.153 103.254 135.521 98.163C154.971 121.523 182.915 123.429 177.492 115.756C179.02 115.854 180.055 115.577 180.454 114.886C180.767 114.343 180.672 113.594 180.211 112.694C182.814 116.128 183.806 119.22 182.623 121.269Z" fill="#1D2435"/>
<path d="M56.7208 285.112C25.8284 267.276 6.77184 244.384 13.3443 233C16.2646 227.942 23.5536 225.98 34.4307 227.341C34.5894 227.362 34.7366 227.412 34.8724 227.49C35.2459 227.706 35.4969 228.107 35.4754 228.563C35.45 229.182 34.9697 229.674 34.3472 229.707C32.9903 229.783 31.2451 230.088 30.6375 231.141C28.0764 235.577 42.8516 250.7 68.1539 265.309C93.4563 279.917 113.953 285.157 116.514 280.721C117.121 279.669 116.513 278.005 115.901 276.792C115.618 276.236 115.804 275.574 116.328 275.243C116.711 274.996 117.184 275.013 117.546 275.222C117.682 275.3 117.803 275.405 117.908 275.536C124.514 284.269 126.47 291.569 123.55 296.628C116.977 308.011 87.6245 302.954 56.7208 285.112Z" fill="#FEFEFE"/>
<path fill-rule="evenodd" clip-rule="evenodd" d="M118.853 274.815C125.773 283.97 127.754 291.723 124.579 297.222C121.071 303.299 111.766 305.304 98.378 302.856C85.8132 300.55 70.8026 294.615 56.1259 286.141C41.4605 277.674 28.815 267.642 20.5247 257.907C11.7217 247.544 8.80587 238.483 12.3142 232.406C15.4894 226.906 23.1941 224.746 34.5831 226.162C34.9087 226.199 35.2064 226.31 35.4666 226.461C36.2135 226.892 36.6977 227.699 36.6613 228.599C36.617 229.825 35.6433 230.832 34.4161 230.893C32.6897 230.983 31.8564 231.407 31.6669 231.735C31.2618 232.437 31.9019 236.111 39.8634 243.619C46.9115 250.253 57.1607 257.589 68.7481 264.279C80.3356 270.969 91.8243 276.184 101.094 278.971C111.566 282.105 115.079 280.829 115.484 280.127C115.673 279.799 115.613 278.859 114.838 277.325C114.277 276.232 114.651 274.879 115.703 274.233C116.463 273.752 117.405 273.768 118.141 274.192C118.412 274.349 118.658 274.551 118.853 274.815ZM117.543 281.316C114.224 287.064 91.843 280.359 67.5591 266.338C43.2865 252.325 26.2885 236.295 29.6074 230.546C30.3261 229.301 31.9399 228.649 34.2776 228.52C24.4113 227.29 17.1111 228.854 14.3737 233.595C8.22593 244.243 27.4458 266.852 57.3084 284.093C87.1824 301.341 116.372 306.681 122.52 296.033C125.257 291.292 122.961 284.188 116.952 276.252C118.009 278.341 118.262 280.071 117.543 281.316Z" fill="#1D2435"/>
<path d="M122.519 296.033C116.371 306.681 87.1816 301.341 57.3077 284.093C34.4269 270.883 17.8178 254.519 14.0483 242.807C58.8386 296.625 123.187 300.991 110.707 283.329C114.2 283.551 116.615 282.923 117.542 281.316C118.261 280.071 118.008 278.341 116.951 276.252C122.961 284.188 125.256 291.292 122.519 296.033Z" fill="#1D2435"/>
<path d="M65.8669 269.269C39.9648 254.315 24.0152 235.058 29.562 225.45C31.9139 221.377 37.6248 219.665 46.0634 220.493C46.2384 220.504 46.4278 220.568 46.5749 220.653C46.9596 220.875 47.1976 221.299 47.1826 221.743C47.155 222.496 46.5703 222.777 46.0213 223.049C45.6477 223.226 44.5562 223.757 44.3537 224.108C42.5048 227.31 53.5098 239.609 75.621 252.375C97.7436 265.147 113.897 268.528 115.746 265.326C116.112 264.692 115.932 263.593 115.23 262.222C114.958 261.673 115.144 261.011 115.668 260.679C116.045 260.444 116.513 260.443 116.886 260.659C117.022 260.737 117.139 260.84 117.237 260.967C122.818 268.338 124.444 274.512 121.968 278.801C116.421 288.408 91.7803 284.23 65.8669 269.269Z" fill="#FEFEFE"/>
<path fill-rule="evenodd" clip-rule="evenodd" d="M118.193 260.251C125.622 270.093 124.905 276.091 122.997 279.395C119.973 284.635 112.059 286.372 100.704 284.298C90.1534 282.371 77.5794 277.389 65.279 270.288C52.9899 263.193 42.389 254.794 35.445 246.62C27.9705 237.824 25.5187 230.102 28.5436 224.862C30.3533 221.728 34.8908 218.207 46.1758 219.306C46.5365 219.343 46.8715 219.451 47.1808 219.629C47.939 220.067 48.4036 220.909 48.3689 221.779C48.3153 223.257 47.1638 223.814 46.5368 224.116C46.2769 224.253 45.6321 224.559 45.3556 224.777C45.2135 225.389 45.9753 228.303 52.1582 234.136C58.02 239.663 66.5632 245.772 76.2156 251.345C85.8794 256.924 95.4417 261.268 103.148 263.575C111.721 266.156 114.487 265.128 114.716 264.732C114.768 264.641 114.821 264.053 114.179 262.762C113.618 261.668 113.985 260.326 115.025 259.675C115.797 259.2 116.745 259.204 117.481 259.629C117.753 259.786 117.991 259.999 118.193 260.251ZM116.776 265.921C114.005 270.719 95.316 265.118 75.0266 253.404C54.7485 241.697 40.5539 228.311 43.324 223.513C43.899 222.518 46.1502 221.78 45.9804 221.682L45.9399 221.674C38.3454 220.926 32.7543 222.299 30.5918 226.045C25.4567 234.939 41.5213 253.84 66.4615 268.239C91.4131 282.645 115.803 287.101 120.938 278.206C123.218 274.257 121.303 268.323 116.292 261.688C117.171 263.433 117.377 264.88 116.776 265.921Z" fill="#1D2435"/>
<path d="M120.938 278.206C115.803 287.101 91.4136 282.645 66.462 268.24C47.3495 257.205 33.4706 243.534 30.323 233.75C67.7363 278.707 121.503 282.35 111.067 267.603C113.995 267.785 116.005 267.256 116.776 265.921C117.377 264.88 117.171 263.433 116.292 261.688C121.303 268.323 123.219 274.257 120.938 278.206Z" fill="#1D2435"/>
<path d="M215.917 84.2442C215.36 84.6615 214.774 85.0478 214.133 85.4015C203.417 91.391 176.574 112.798 176.574 112.798L165.192 109.802C165.192 109.802 196.663 91.9573 173.733 66.1053C197.245 75.8176 197.236 87.3846 215.917 84.2442Z" fill="#1D2435"/>
</svg>
